<svg width="644" height="888" viewBox="0 0 644 888" fill="none" xmlns="http://www.w3.org/2000/svg">
<path fill-rule="evenodd" clip-rule="evenodd" d="M525.436 164.536C533.948 181.298 544.88 193.657 552.192 195.969C570.527 201.767 608.074 144.91 610.085 114.502C612.096 84.0946 555.483 34.9173 524.123 78.0583C513.238 93.0312 511.082 111.116 513.673 128.59L445.516 198.896L496.123 230.518L525.436 164.536Z" fill="#915B3C"/>
<path fill-rule="evenodd" clip-rule="evenodd" d="M511.445 49.2524C510.822 46.6115 511.375 43.7426 511.975 41.0656C512.599 38.2849 513.26 35.4949 514.212 32.7892C516.112 27.3831 519.51 21.9232 525.194 20.3551C529.753 19.0979 534.652 20.3175 538.589 22.3777C541.213 23.7501 543.565 25.7073 545.472 27.9956C547.364 30.266 548.442 33.108 550.145 35.5183C553.426 30.4631 557.643 25.663 562.963 22.9197C568.081 20.2805 573.531 20.4103 578.451 22.6179C583.501 24.8839 587.413 28.8411 590.169 33.6932C590.859 34.9081 591.522 36.1439 592.093 37.4297C592.571 38.5064 593.009 39.7179 593.838 40.5522C594.761 41.4825 595.688 41.1927 596.885 40.8427C598.288 40.4324 599.727 40.1977 601.161 40.0894C607.505 39.6108 614.03 41.8613 617.87 46.9237C619.639 49.2562 620.959 52.1648 621.244 55.2136C621.497 57.9312 620.673 61.4766 621.809 63.9694C622.29 65.0274 623.322 64.6689 624.403 64.6034C626.028 64.5049 627.652 64.2909 629.277 64.2227C631.559 64.1266 633.801 64.3889 635.921 65.1181C639.026 66.1856 642.683 68.6749 641.238 72.7117C640.696 74.2279 639.581 75.5155 638.647 76.801C637.364 78.5663 636.076 80.3275 634.764 82.0705C633.768 83.394 632.77 84.6495 631.647 85.8588C631.048 86.5034 629.754 87.5936 629.609 88.5236C629.429 89.6859 631.567 90.2969 632.321 90.8126C633.811 91.8312 635.179 93.0589 636.185 94.5956C636.964 95.7868 637.651 97.2514 637.328 98.7963C637.131 99.7453 636.561 100.491 635.93 101.201C635.174 102.052 635.043 102.673 634.562 103.709C637.248 103.981 645.769 106.182 644.365 110.421C643.897 111.833 642.353 112.793 641.189 113.503C639.148 114.748 636.922 115.66 634.717 116.48C630.117 118.188 625.309 119.137 620.527 119.529C623.288 123.617 621.154 129.252 615.978 130.17C613.693 130.575 611.545 129.641 609.755 128.405C609.099 127.953 608.289 127.086 607.685 126.871C607.36 126.756 606.902 126.807 606.49 126.587C603.777 125.139 601.232 122.678 599.05 120.512C595.162 116.652 592.213 111.825 590.753 106.368C590.379 104.968 589.938 104.021 588.721 103.277C587.654 102.626 586.433 102.267 585.357 101.632C582.51 99.9527 580.84 97.0047 578.808 94.4674C576.453 97.8821 573.033 101.127 569.62 103.39C566.837 105.236 564.154 104.081 561.607 102.803C553.461 98.7199 546.246 93.0879 538.536 88.2852C544.94 94.63 552.211 100.139 558.362 106.741C561.143 109.724 557.185 110.382 554.782 111.05C550.824 112.15 547.085 114.241 543.776 116.838C543.099 109.804 538.609 102.643 531.984 100.534C524.664 98.2038 514.887 103.961 515.09 112.618C515.207 117.644 518.579 121.663 521.144 125.393C516.613 126.532 513.314 130.334 509.441 132.853C507.531 134.096 505.149 135.361 502.944 134.832C502.128 134.637 501.325 134.162 500.449 134.379C499.365 134.648 498.732 135.311 497.524 135.37C492.706 135.606 487.57 132.147 486.497 127.238C485.526 122.799 488.952 118.876 492.948 117.486C490.3 113.757 484.977 107.763 489.884 103.075C482.449 97.7129 471.475 73.3641 487.63 70.6778C483.934 63.8784 483.615 52.7071 491.632 48.0444C497.805 44.454 505.874 46.1667 511.445 49.2524Z" fill="#191847"/>
<path fill-rule="evenodd" clip-rule="evenodd" d="M244.221 631.784C244.221 631.784 333.701 656.798 398.623 656.798C463.544 656.798 519.227 618.276 519.227 618.276C519.227 618.276 431.662 592.601 375 592.601C318.338 592.601 244.221 631.784 244.221 631.784Z" fill="#1F28CF"/>
<path fill-rule="evenodd" clip-rule="evenodd" d="M450.264 680.835C449.688 679.971 449.203 679.031 448.817 678.013C440.844 656.937 313.124 429.569 300.4 388H444.194C453.868 419.605 497.411 617.945 503.539 657.516C522.874 719.936 562.682 922.091 567.764 936.096C573.11 950.828 543.029 966.176 535.014 948.064C522.26 919.245 491.87 839.502 478.339 790.812C465.653 745.165 455.324 704.099 450.264 680.835Z" fill="#784931"/>
<path fill-rule="evenodd" clip-rule="evenodd" d="M332.62 708.595C274.229 723.345 60.6456 750.011 45.9886 754.194C30.9111 758.496 17.691 727.434 36.3276 720.706C65.9816 710 147.692 685.263 197.233 675.168C237.081 667.048 273.442 660.423 297.854 656.543C295.786 588.005 286.332 423.525 292.529 388H419.76C413.818 422.066 363.586 670.629 354.25 695.509C351.287 704.392 342.447 708.317 332.62 708.595Z" fill="#915B3C"/>
<path fill-rule="evenodd" clip-rule="evenodd" d="M42.4297 715.607C42.7412 714.478 42.0525 713.312 40.9031 713.087C36.3524 712.195 25.6718 710.317 20.5397 711.221C13.9156 712.389 1.59648 716.834 1.59648 716.834C2.95145 724.515 25.9511 854.883 25.9511 854.883C25.9511 854.883 44.6995 857.127 44.0734 845.284C43.4472 833.44 43.238 825.57 43.238 825.57L60.9084 754.88C61.0451 754.333 60.7032 753.782 60.1528 753.661L47.9218 750.972C47.9218 750.972 41.0181 741.122 39.8343 734.412C38.9299 729.286 41.2733 719.799 42.4297 715.607Z" fill="#E4E4E4"/>
<path fill-rule="evenodd" clip-rule="evenodd" d="M292.94 388C292.94 388 377.04 363.951 452.087 388C469.493 467.376 511.789 498.88 519.227 620.577C434.68 662.564 330.24 590.632 243.207 631.578C218.34 574.305 253.153 436.376 292.94 388Z" fill="#2B44FF"/>
<path fill-rule="evenodd" clip-rule="evenodd" d="M613.227 530.011L572.16 440.753L535.869 470.118L588.689 536.581C595.455 570.122 601.036 585.634 605.432 583.118C609.138 580.997 609.283 577.168 609.416 573.641C609.519 570.893 609.616 568.329 611.384 566.898C615.422 563.631 628.206 571.297 640.027 579.091C651.848 586.885 651.295 579.396 649.822 575.032C641.401 560.501 629.202 545.494 613.227 530.011ZM190.507 474.524C202.589 463.35 277.274 337.922 277.274 337.922L325.635 356.704C325.635 356.704 225.183 484.309 218.207 491.798C209.143 501.526 210.612 521.28 211.609 534.674C211.763 536.746 211.906 538.666 211.996 540.373C203.298 540.846 201.274 535.462 199.14 529.786C196.729 523.375 194.178 516.591 181.713 517.453C176.898 517.785 172.168 518.549 167.548 519.295C151.587 521.871 136.925 524.238 124.481 507.916C122.508 505.328 121.981 498.234 130.628 496.168C152.17 491.019 184.601 479.986 190.507 474.524Z" fill="#915B3C"/>
<path fill-rule="evenodd" clip-rule="evenodd" d="M492.937 187.504L514.298 191.759C515.712 291.208 545.887 392.66 604.822 496.114L509.55 550.115C462.088 416.802 448.824 292.967 492.937 187.504Z" fill="#191847"/>
<path fill-rule="evenodd" clip-rule="evenodd" d="M308.882 405.851L487.345 474.356C487.345 474.356 483.216 299.74 523.68 194.329L472.926 165.642C404.496 217.452 360.387 296.649 308.882 405.851Z" fill="#DDE3E9"/>
<path fill-rule="evenodd" clip-rule="evenodd" d="M198.401 451.203C302.449 238.484 471.743 165.188 471.743 165.188L471.772 165.243C471.784 165.233 471.796 165.223 471.808 165.213L475.322 166.562C481.545 169.2 494.235 174.72 494.235 174.72L492.971 216.891C468.936 285.675 411.882 500.189 411.882 500.189L295.067 455.348C291.639 464.872 288.401 474.622 285.385 484.593L198.401 451.203Z" fill="#2F3676"/>
<path fill-rule="evenodd" clip-rule="evenodd" d="M294.736 456.269C309.597 414.769 328.076 377.539 347.584 344.917C334.844 387.622 322.338 440.093 327.28 468.762L294.736 456.269Z" fill="black" fill-opacity="0.1"/>
<path fill-rule="evenodd" clip-rule="evenodd" d="M348.167 394.336L416.148 389.659L405.852 416.479L348.167 394.336Z" fill="white" fill-opacity="0.2"/>
</svg>
