<svg width="405" height="261" viewBox="0 0 405 261" fill="none" xmlns="http://www.w3.org/2000/svg">
<path fill-rule="evenodd" clip-rule="evenodd" d="M160.959 145.66C156.445 140.103 151.382 136.369 148.471 136.082C141.174 135.362 131.73 159.399 133.414 170.843C135.098 182.287 160.134 196.12 168.369 177.657C171.227 171.25 170.584 164.368 168.22 158.084L187.996 126.665L166.604 118.879L160.959 145.66Z" fill="#B28B67"/>
<path fill-rule="evenodd" clip-rule="evenodd" d="M132.958 165.813C132.718 167.13 132.735 168.695 132.726 170.02C132.714 171.728 133.033 173.388 133.463 175C134.272 178.033 135.503 180.955 137.08 183.583C139.962 188.381 144.468 192.185 149.81 193.427C152.506 194.053 155.37 193.987 158.097 193.135C160.561 192.365 163.204 190.873 165.757 191.626C168.535 192.446 170.158 195.734 171.802 197.998C173.654 200.551 175.828 202.71 178.528 204.225C183.051 206.762 188.157 206.792 192.898 204.079C197.944 201.191 202.734 196.007 202.43 189.636C202.373 188.452 202.134 187.384 201.601 186.377C201.111 185.453 200.253 184.348 200.34 183.188C200.433 181.956 201.896 180.855 202.627 179.978C203.674 178.722 204.654 177.361 205.074 175.734C205.763 173.063 205.027 170.006 203.921 167.683C202.795 165.318 200.997 163.543 198.857 162.248C197.429 161.383 195.917 160.642 194.31 160.187C193.513 159.961 192.749 159.926 191.935 159.823C191.143 159.722 190.804 159.38 190.328 158.755C188.118 155.853 185.278 154.008 181.847 153.071C178.951 152.28 175.465 151.778 172.476 152.857C169.156 154.055 168.14 157.003 167.6 160.352C167.079 159.808 165.393 158.976 165.989 160.603C166.225 161.248 166.938 161.735 167.365 162.219C167.864 162.783 168.335 163.45 168.617 164.176C169.755 167.111 166.139 170.925 163.419 170.78C159.379 170.565 160.424 165.159 158.309 162.892C157.093 161.589 155.153 162.059 153.648 162.713C151.633 163.588 149.927 165.099 148.348 166.694C147.048 168.007 145.79 169.361 144.478 170.661C143.866 171.268 141.915 172.905 142.215 173.952C139.422 173.52 136.912 171.389 135.181 169.162C134.466 168.241 133.993 167.341 133.873 166.132C133.848 165.873 133.855 165.133 133.576 165.001C133.055 164.754 133.018 165.482 132.958 165.813Z" fill="#191847"/>
<path fill-rule="evenodd" clip-rule="evenodd" d="M213.312 54.9424L211.687 -73.6766L212.035 -167.913L194.94 -174.135L164.676 37.2402L213.312 54.9424Z" fill="#1F28CF"/>
<path fill-rule="evenodd" clip-rule="evenodd" d="M223.883 58.79C238.467 20.169 257.139 -32.178 259.102 -34.2017C261.066 -36.2254 346.546 -64.7737 346.546 -64.7737L343.182 -82.9469C343.182 -82.9469 246.006 -60.8907 239.522 -55.5996C233.038 -50.3085 190.191 4.50116 166.165 37.7822L223.883 58.79Z" fill="#2B44FF"/>
<path fill-rule="evenodd" clip-rule="evenodd" d="M299.391 50.4824C294.179 53.9701 254.607 97.463 254.607 97.463L239.993 88.9339C239.993 88.9339 286.932 44.7359 290.003 42.3315C293.994 39.2081 294.621 31.6842 295.046 26.5823C295.112 25.7931 295.173 25.0617 295.241 24.4136C298.541 24.7531 298.981 26.9004 299.445 29.1642C299.968 31.7211 300.523 34.4267 305.263 34.8439C307.095 35.0051 308.919 34.999 310.702 34.993C316.859 34.9723 322.516 34.9533 326.222 41.8383C326.81 42.9298 326.584 45.6319 323.208 45.8956C314.798 46.5524 301.939 48.7773 299.391 50.4824ZM108.79 10.9711L129.544 42.1135L141.452 28.8913L117.631 7.03149C113.092 -5.18881 110.071 -10.6941 108.566 -9.48434C107.298 -8.46432 107.471 -7.01441 107.631 -5.67888C107.755 -4.63851 107.871 -3.66755 107.291 -3.0233C105.966 -1.55205 100.701 -3.67352 95.7907 -5.9006C90.8806 -8.12767 91.5335 -5.34178 92.3471 -3.78743C96.3789 1.17888 101.86 6.09839 108.79 10.9711Z" fill="#B28B67"/>
<path fill-rule="evenodd" clip-rule="evenodd" d="M153.833 134.653L164.753 134.209C165.558 131.688 166.854 128.158 168.339 124.113C173 111.416 179.521 93.6537 178.539 86.1497C175.135 60.1527 155.953 40.2743 134.589 18.1344C131.725 15.1668 128.822 12.1585 125.913 9.08939L113.446 21.0993C114.06 21.9883 114.666 22.8781 115.263 23.7684C113.997 23.7536 112.736 24.3026 111.884 25.3703C110.417 27.2085 110.715 29.8881 112.55 31.3554C116.28 34.3373 120.025 36.3854 123.766 37.4502C142.214 69.603 150.566 102.423 153.833 134.653Z" fill="#69A1AC"/>
<path fill-rule="evenodd" clip-rule="evenodd" d="M232.921 50.7568C232.921 50.7568 192.708 30.9023 166.977 26.755C164.852 26.4125 161.818 35.0198 161.886 37.6972C162.96 79.3913 162.68 109.526 153.46 134.858C158.161 134.23 167.508 139.27 167.508 139.27C194.699 119.602 213.732 92.6083 232.921 50.7568Z" fill="#191847"/>
<path fill-rule="evenodd" clip-rule="evenodd" d="M286.209 69.6526C235.812 131.312 173.859 143.998 173.859 143.998L169.061 142.251L163.757 140.321C170.416 125.585 173.065 101.579 176.137 73.7297C181.051 29.1911 187.05 -25.1754 212.272 -67.164C223.943 -65.6491 236.024 -59.3862 249.102 -52.606C267.978 -42.8207 288.932 -31.9581 313.727 -32.7372C306.305 -14.9411 288.458 1.25351 270.692 17.375C259.43 27.5939 248.201 37.7834 239.68 48.3328C240.304 49.5707 240.311 51.0886 239.567 52.3786L238.143 54.8468C237.182 56.5114 235.267 57.2807 233.488 56.8623C232.704 58.0882 231.964 59.32 231.273 60.5584C227.742 66.8867 226.016 73.7828 224.31 80.6013L224.309 80.6013C223.373 84.3449 222.442 88.0652 221.221 91.6552C236.98 85.3731 258.116 72.1121 281.942 44.4633L296.92 55.5129C295.41 57.6658 293.883 59.7683 292.342 61.8216C293.894 63.6002 294.331 69.5221 292.387 69.7753C290.333 70.0428 288.272 69.9991 286.209 69.6526Z" fill="#89C5CC"/>
<path fill-rule="evenodd" clip-rule="evenodd" d="M170.514 141.773L180.233 129.33L174.855 115.392L186.221 110.115L178.634 68.1759L190.744 111.682L179.501 117.083L184.29 129.413L170.514 141.773Z" fill="black" fill-opacity="0.1"/>
<path fill-rule="evenodd" clip-rule="evenodd" d="M189.408 56.9883C187.445 56.274 185.275 57.2879 184.56 59.2528C183.845 61.2177 184.856 63.3896 186.818 64.1038C188.78 64.8181 190.951 63.8042 191.666 61.8393C192.381 59.8744 191.37 57.7025 189.408 56.9883ZM192.412 34.9146C190.45 34.2003 188.279 35.2142 187.564 37.1791C186.849 39.144 187.86 41.3158 189.822 42.0301C191.785 42.7443 193.955 41.7305 194.67 39.7656C195.386 37.8007 194.375 35.6288 192.412 34.9146ZM194.121 16.3986C194.837 14.4337 197.007 13.4198 198.97 14.1341C200.932 14.8483 201.943 17.0202 201.228 18.9851C200.513 20.95 198.342 21.9639 196.38 21.2496C194.417 20.5354 193.406 18.3635 194.121 16.3986Z" fill="black" fill-opacity="0.4"/>
</svg>
