<svg width="438" height="459" viewBox="0 0 438 459" fill="none" xmlns="http://www.w3.org/2000/svg">
<path fill-rule="evenodd" clip-rule="evenodd" d="M122.149 86.671C118.718 94.1009 114.162 99.6454 111.018 100.757C103.134 103.545 85.8706 79.2815 84.5007 66.0496C83.1308 52.8176 106.965 30.571 121.313 48.9406C126.293 55.3161 127.526 63.1719 126.683 70.8292L157.485 100.524L135.978 115.03L122.149 86.671Z" fill="#B28B67"/>
<path fill-rule="evenodd" clip-rule="evenodd" d="M131.262 74.054C125.819 60.1619 127.959 46.7464 123.145 42.1432C118.331 37.5399 112.359 39.6553 112.359 39.6553C112.359 39.6553 102.513 30.7328 89.254 42.0002C75.9948 53.2675 71.2815 65.1546 83.9433 75.7753C87.4169 73.4323 90.7585 69.3411 98.0164 67.5935C101.471 66.7617 106.272 71.3173 106.272 71.3173L108.892 69.5499C108.892 69.5499 108.419 60.6196 113.264 59.8036C118.108 58.9875 120.471 66.8522 120.471 66.8522L128.475 75.9343L131.262 74.054Z" fill="#191847"/>
<path fill-rule="evenodd" clip-rule="evenodd" d="M227.245 151.706L189.624 303.981L165.185 430.465L152.754 434.266L176.819 167.122L227.245 151.706Z" fill="#997659"/>
<path fill-rule="evenodd" clip-rule="evenodd" d="M168.16 422.719C169.044 421.951 170.402 422.033 171.108 422.968C172.503 424.813 174.56 427.727 175.112 429.533C175.969 432.336 176.68 437.999 176.68 437.999C173.429 438.993 118.248 455.864 118.248 455.864C118.248 455.864 113.667 449.028 118.391 446.927C123.115 444.826 126.212 443.35 126.212 443.35L149.733 422.879C150.158 422.509 150.804 422.563 151.162 422.998L154.257 426.767C154.257 426.767 159.448 427.499 162.289 426.63C164.067 426.086 166.551 424.116 168.16 422.719Z" fill="#E4E4E4"/>
<path fill-rule="evenodd" clip-rule="evenodd" d="M175.886 408.136L149.695 408.211C149.695 408.211 151.045 356.281 156.612 292.71C162.178 229.14 172.337 168.493 172.337 168.493L240.046 147.792C240.046 147.792 231.216 223.279 215.157 287.674C199.098 352.069 175.886 408.136 175.886 408.136Z" fill="#DB2721"/>
<path fill-rule="evenodd" clip-rule="evenodd" d="M232.304 150.159C253.401 193.178 285.085 246.693 286.953 248.073C288.198 248.992 323.191 249.927 391.93 250.878L392.598 262.665C314.656 274.713 272.767 278.379 266.932 273.664C258.179 266.591 206.55 205.359 181.661 165.642L232.304 150.159Z" fill="#B28B67"/>
<path fill-rule="evenodd" clip-rule="evenodd" d="M367.028 248.127L367.698 267.234C313.363 289.202 278.072 296.121 261.823 287.992C245.574 279.863 217.542 239.481 177.725 166.845L242.29 147.106C271.91 207.497 287.73 238.841 289.75 241.139C291.771 243.437 317.53 245.766 367.028 248.127Z" fill="#FF4133"/>
<path fill-rule="evenodd" clip-rule="evenodd" d="M386.54 250.22C385.937 249.217 386.254 247.894 387.296 247.361C389.355 246.308 392.581 244.788 394.455 244.558C397.363 244.201 403.063 244.485 403.063 244.485C403.477 247.86 410.515 305.15 410.515 305.15C410.515 305.15 402.99 308.474 401.741 303.456C400.492 298.438 399.576 295.129 399.576 295.129L383.501 268.401C383.211 267.918 383.376 267.291 383.867 267.015L388.114 264.621C388.114 264.621 389.735 259.634 389.373 256.685C389.146 254.839 387.636 252.048 386.54 250.22Z" fill="#E4E4E4"/>
<path fill-rule="evenodd" clip-rule="evenodd" d="M83.4501 205.36L120.697 183.642L126.421 203.418L90.6577 213.949C79.7895 224.307 73.8781 228.476 72.9232 226.456C72.1182 224.752 73.028 223.337 73.866 222.033C74.5188 221.018 75.1281 220.07 74.8492 219.107C74.2123 216.906 67.6716 216.424 61.4466 216.231C55.2217 216.039 57.3025 213.483 58.9305 212.286C65.6209 209.19 73.7941 206.882 83.4501 205.36ZM311.73 159.953C305.278 156.845 232.529 108.797 232.529 108.797L213.913 123.454C213.913 123.454 298.525 168.453 302.383 170.679C307.395 173.572 309.291 181.981 310.577 187.684C310.776 188.566 310.96 189.383 311.139 190.105C314.823 189.192 314.982 186.692 315.151 184.058C315.341 181.081 315.542 177.932 320.845 176.699C322.894 176.223 324.961 175.937 326.981 175.658C333.958 174.693 340.367 173.807 343.479 165.424C343.972 164.095 343.291 161.075 339.426 161.319C329.797 161.926 314.884 161.473 311.73 159.953Z" fill="#997659"/>
<path fill-rule="evenodd" clip-rule="evenodd" d="M135.2 89.636L121.341 102.03C143.147 137.36 139.583 173.221 90.2435 200.572L117.127 247.004C162.301 220.237 185.477 175.716 158.156 125.544C151.084 112.556 143.244 99.4142 135.2 89.636Z" fill="#AFB9C5"/>
<path fill-rule="evenodd" clip-rule="evenodd" d="M302.58 153.52C250.308 107.537 196.298 82.5647 140.55 78.6026L139.147 79.6987L139.099 79.7359L139.098 79.7586L120.905 102.128C141.658 128.689 151.244 153.16 160.461 176.687C164.441 186.847 168.352 196.831 173.064 206.731L232.883 159.995C241.274 168.999 249.551 178.525 257.789 188.514L302.58 153.52Z" fill="#C5CFD6"/>
<path fill-rule="evenodd" clip-rule="evenodd" d="M232.883 159.995C215.798 141.664 198.236 125.5 179.544 112.014C195.228 129.801 213.616 152.701 220.725 169.494L232.883 159.995Z" fill="black" fill-opacity="0.1"/>
</svg>
