<svg width="936" height="792" viewBox="0 0 936 792" fill="none" xmlns="http://www.w3.org/2000/svg">
<path fill-rule="evenodd" clip-rule="evenodd" d="M788.225 251.334C787.692 250.946 786.426 250.809 785.838 250.692C783.39 250.21 780.869 250 778.374 250C770.681 250.012 762.863 250.767 755.298 252.074C750.494 252.903 744.687 255.696 739.909 254.179C731.585 251.537 723.172 251.667 715.274 255.439C708.053 258.888 702.572 265.439 699.373 272.517C698.89 273.586 696.932 277.519 696.378 280.17C696.141 280.712 695.913 281.257 695.708 281.811C695.126 283.384 694.603 284.984 694.118 286.588C693.91 287.272 693.389 288.782 694.008 289.074C693.019 290.901 692.141 292.783 691.411 294.726C689.286 300.378 686.962 306.578 686.215 312.568C685.939 314.786 685.928 317.017 686.185 319.239C686.312 320.338 686.26 322.546 687.004 323.382C688.585 325.154 689.396 322.673 689.218 321.491C687.858 312.485 690.485 304.027 693.598 295.561C695.612 290.087 698.92 285.078 702.626 280.543C705.625 276.871 708.842 273.98 712.953 271.546C717.981 268.569 723.356 266.163 728.681 263.749C732.184 262.161 735.691 260.615 739.291 259.247C740.092 258.942 741.351 258.161 742.239 258.158C744.116 258.152 746.777 259.537 748.59 260.052C754.554 261.748 760.594 263.919 766.758 264.785C770.712 265.341 774.416 264.715 778.113 263.398C778.491 263.264 779.125 262.918 779.901 262.424C782.646 261.368 785.243 260.039 787.504 258.121C788.806 257.017 789.989 255.589 791.067 254.282C791.389 253.892 791.532 253.444 791.537 253.018C791.781 252.891 791.943 252.741 791.98 252.567C792.249 251.281 789.796 251.258 788.225 251.334Z" fill="#89C5CC"/>
<path fill-rule="evenodd" clip-rule="evenodd" d="M163.273 358.541C161.764 359.763 160.284 361.011 158.84 362.31C157.739 363.3 155.791 364.485 155.396 365.985C154.985 367.544 156.282 369.003 157.306 369.945C162.723 374.929 168.823 378.298 176.329 378.859C187.887 379.722 197.946 376.77 207.974 370.963C215.018 366.883 219.684 360.849 220.703 352.701C229.092 356.187 237.205 360.993 244.1 366.891C247.502 369.801 250.432 373.025 253.142 376.599C254.878 378.889 256.557 381.215 258.115 383.631C258.792 384.68 259.481 386.542 260.599 387.146C261.912 387.856 263.499 386.743 263.434 385.284C263.379 384.069 262.068 382.66 261.454 381.667C260.436 380.018 259.402 378.379 258.313 376.776C256.551 374.179 254.73 371.62 252.744 369.19C248.28 363.73 242.601 359.221 236.714 355.375C225.42 347.997 213.025 343.349 199.283 342.955C190.833 342.713 183.725 345.6 176.499 349.911C172 352.595 167.356 355.235 163.273 358.541Z" fill="#DDE3E9"/>
<path fill-rule="evenodd" clip-rule="evenodd" d="M272.883 322.856C264.077 313.787 255.241 304.832 245.403 296.847C239.605 292.141 233.495 287.863 227.511 283.401C228.201 284.006 228.878 284.628 229.539 285.266C227.671 283.998 225.226 283.281 223.246 282.107C221.037 280.798 218.925 279.301 216.854 277.791C212.811 274.845 208.829 271.843 204.673 269.051C200.043 265.94 195.245 263.066 190.536 260.072C186.539 257.532 182.494 254.751 178.218 252.674C175.888 251.542 173.553 250.201 171.213 249.02C170.43 248.625 162.484 243.608 162.504 243.593C162.943 243.262 166.942 245.14 167.56 245.393C169.366 246.131 171.094 247.013 172.83 247.893C171.877 246.013 171.123 244.038 170.712 241.958C170.585 241.317 169.569 236.644 170.089 236.252C170.348 236.057 172.883 244.416 173.013 245.22C173.119 245.872 173.103 246.812 173.317 247.431C173.662 248.429 173.645 248.127 174.405 248.69C175.798 249.721 177.647 250.365 179.154 251.227C179.968 251.68 182.485 253.48 184.001 253.993C188.588 256.221 193.238 259.649 197.597 262.495C196.453 260.345 195.582 258.097 194.948 255.741C194.797 255.182 193.167 250.165 193.563 249.867C194.008 249.532 197.112 257.195 197.296 257.92C197.637 259.268 197.708 260.768 198.136 262.079C198.605 263.518 200.07 264.028 201.39 264.867C206.247 267.953 210.938 271.232 215.55 274.662C220.583 265.711 214.78 254.903 209.89 247.393C206.364 241.98 201.619 237.34 196.608 233.289C189.92 227.882 182.269 223.563 174.627 219.612C165.723 215.009 156.099 212.156 146.093 210.839C140.86 210.149 135.507 210.169 130.221 210.39C127.639 210.498 125.16 210.84 122.686 211.682C121.57 212.062 120.492 212.541 119.442 213.077C118.644 213.484 116.713 213.914 116.255 214.521C112.477 219.438 110.545 224.337 110.84 230.515C111.119 236.363 112.966 242.214 115.472 247.431C118.264 253.24 121.854 258.512 126.55 262.936C130.132 266.312 134.137 269.25 138.116 272.15C152.267 282.463 170.208 291.433 188.536 289.128C194.469 288.383 200.112 286.308 205.385 283.489C206.628 282.824 207.863 282.152 209.036 281.368C209.827 280.839 211.941 278.456 212.736 278.37C213.827 278.251 216.175 280.469 217.198 281.144C224.972 286.275 232.542 291.685 239.953 297.313C247.839 303.301 255.337 309.697 262.615 316.393C265.71 319.242 268.786 322.096 271.791 325.04C272.491 325.725 274.202 328.247 275.471 328.361C276.273 328.434 276.814 327.749 276.7 327.006C276.501 325.715 273.785 323.784 272.883 322.856Z" fill="#C1DEE2"/>
<path fill-rule="evenodd" clip-rule="evenodd" d="M778.98 287.66C775.57 286.915 771.803 286.972 768.329 287.033C749.695 287.287 731.397 296.109 719.489 310.205C709.351 322.205 706.563 337.125 704.56 352.207C704.362 353.704 704.277 355.192 704.165 356.693C704.141 357.015 704.105 357.302 704.066 357.573C703.279 358.277 702.865 359.098 703.332 360C701.597 363.797 700.129 367.69 698.869 371.706C695.162 383.526 691.392 395.571 693.714 408C694.257 401.16 695.399 394.166 696.764 387.438C696.842 387.052 696.927 386.669 697.015 386.287C697.025 386.247 697.033 386.206 697.042 386.166C697.525 384.106 698.153 382.108 698.917 380.141C698.925 380.119 698.933 380.098 698.941 380.077C699.042 379.818 699.149 379.56 699.255 379.303C699.474 378.77 699.699 378.238 699.937 377.709C700.018 377.528 700.095 377.346 700.17 377.163C701.282 374.437 701.751 371.365 702.748 368.545C702.986 367.904 703.235 367.265 703.496 366.629C703.512 366.592 703.527 366.555 703.543 366.518C704.249 364.807 705.028 363.118 705.853 361.446C706.301 361.109 706.54 360.274 706.927 359.515C707.006 359.365 707.631 358.368 707.817 357.793C708.303 356.854 708.786 355.915 709.275 354.977C709.261 354.983 709.246 354.988 709.231 354.994C709.72 354.093 710.211 353.197 710.698 352.304C710.805 352.108 710.913 351.912 711.021 351.715C711.196 351.402 711.371 351.089 711.545 350.777C713.177 347.856 714.908 344.994 716.705 342.167C717.347 341.158 718.879 339.711 719.173 338.579C719.184 338.536 719.186 338.497 719.193 338.457C723.093 332.979 727.582 327.927 732.967 323.924C732.316 324.628 730.932 327.015 730.567 327.488C729.447 328.935 728.232 330.282 727.013 331.646C724.828 334.089 722.696 336.609 720.801 339.274C717.335 344.148 714.346 349.277 711.519 354.51C711.493 354.54 711.463 354.569 711.438 354.601C710.017 356.352 709.123 358.998 708.101 361.001C712.147 359.127 716.622 357.906 720.774 356.242C724.916 354.583 728.944 352.735 732.834 350.566C738.003 347.682 743.366 344.427 748.25 340.743C753.847 337.271 758.551 332.492 762.703 327.477C767.615 321.543 772.117 315.558 774.901 308.353C776.269 304.813 777.345 301.121 777.983 297.386C778.011 297.224 778.046 297.047 778.085 296.864C778.738 295.574 779.321 294.255 779.811 292.906C780.588 290.766 782.425 288.412 778.98 287.66Z" fill="#69A1AC"/>
<path fill-rule="evenodd" clip-rule="evenodd" d="M130.292 299.014C128.94 297.666 127.422 296.45 125.64 295.583C125.189 295.364 121.833 293.895 121.614 294.218C121.105 294.968 129.886 298.583 130.292 299.014ZM146.205 290.012C146.194 290.069 147.358 291.887 147.675 292.446C148.349 293.635 148.972 294.847 149.558 296.061C148.691 293.916 147.8 291.928 146.205 290.012ZM64.8181 304.814C63.6972 305.146 62.3496 303.836 63.8035 303.514C64.9799 303.254 64.9222 303.193 65.4504 302.321C65.8794 301.612 66.1436 300.748 66.52 300.005C67.3184 298.427 68.224 296.923 69.3357 295.514C71.7182 292.493 74.621 289.89 77.8767 287.696C83.5586 283.868 89.9293 280.369 96.6872 278.611C107.432 275.816 119.662 275.643 130.424 277.581C137.089 278.781 143.181 280.867 147.606 285.809C149.818 288.279 151.555 291.172 152.314 294.358C152.512 295.19 152.475 296.116 152.723 296.932C153.104 298.185 152.936 297.851 154.528 298.095C156.267 298.362 158.004 298.633 159.74 298.91C164.287 299.634 168.861 300.403 173.291 301.578C174.75 301.965 176.176 302.437 177.569 302.987C178.622 303.402 182.818 304.704 183.328 305.965C184.177 308.062 181.333 307.111 180.45 306.655C179.676 306.254 178.881 305.881 178.075 305.538C176.045 304.673 173.93 304.004 171.767 303.471C169.43 302.895 167.045 302.466 164.669 302.035C162.454 301.634 160.23 301.27 158.003 300.921C156.766 300.727 155.528 300.539 154.29 300.35C153.867 300.286 153.122 299.949 153.178 300.455C150.575 299.993 147.76 300.06 145.109 299.932C141.862 299.777 138.602 299.649 135.344 299.742C132.994 299.81 130.642 299.952 128.304 300.242C126.938 300.412 125.594 300.661 124.253 300.976C123.517 301.149 120.614 301.515 120.213 302.106C120.385 301.852 123.589 302.099 123.997 302.084C125.628 302.028 127.247 301.879 128.872 301.712C131.888 301.402 134.906 301.24 137.931 301.263C137.92 301.752 135.853 302.623 135.348 302.947C134.217 303.674 133.134 304.467 132.123 305.337C130.343 306.869 128.211 308.766 126.979 310.581C127.342 310.046 129.133 309.35 129.768 308.942C130.786 308.287 131.783 307.588 132.727 306.841C133.598 306.152 134.411 305.407 135.21 304.646C136.009 303.885 137.094 302.303 138.144 301.796C138.208 301.765 138.666 302.098 138.926 301.985C139.188 301.871 139.514 301.3 139.581 301.277C140.559 300.93 142.415 301.362 143.443 301.406C146.109 301.519 148.772 301.667 151.435 301.802C152.26 301.843 152.962 301.671 153.273 302.231C153.605 302.829 152.997 304.4 152.824 305.051C152.181 307.469 151.041 309.638 149.245 311.511C145.883 315.02 141.736 317.359 137.052 318.924C119.111 324.918 100.023 327.318 82.0874 321.083C74.6619 318.502 63.4791 313.889 64.8181 304.814Z" fill="#89C5CC"/>
<g opacity="0.6" clip-path="url(#clip0)">
<path fill-rule="evenodd" clip-rule="evenodd" d="M885.965 587.189C898.165 663.272 602.277 712.899 347.6 678.266C92.9222 643.633 -23.9118 508.387 97.6161 436.322C219.144 364.258 873.764 511.106 885.965 587.189Z" fill="#DDE3E9"/>
</g>
<rect x="236" y="132" width="159" height="302" rx="8" fill="#F2F2F2"/>
<path fill-rule="evenodd" clip-rule="evenodd" d="M315 415C323.284 415 330 408.284 330 400C330 391.716 323.284 385 315 385C306.716 385 300 391.716 300 400C300 408.284 306.716 415 315 415Z" fill="white"/>
<path fill-rule="evenodd" clip-rule="evenodd" d="M302 152C303.105 152 304 151.105 304 150C304 148.895 303.105 148 302 148C300.895 148 300 148.895 300 150C300 151.105 300.895 152 302 152Z" fill="white"/>
<rect x="309" y="148" width="21" height="4" rx="2" fill="white"/>
<rect x="250" y="160" width="131" height="54" rx="4" fill="white"/>
<g clip-path="url(#clip1)">
<rect x="289" y="176.2" width="73" height="8.1" rx="3" fill="#DDE3E9"/>
<rect x="289" y="189.7" width="49" height="8.1" rx="3" fill="#DDE3E9"/>
</g>
<path fill-rule="evenodd" clip-rule="evenodd" d="M271 199C277.627 199 283 193.627 283 187C283 180.373 277.627 175 271 175C264.373 175 259 180.373 259 187C259 193.627 264.373 199 271 199Z" fill="#C5CFD6"/>
<rect x="250" y="222" width="131" height="42" rx="4" fill="white"/>
<g clip-path="url(#clip2)">
<rect x="289" y="234.6" width="73" height="6.3" rx="3" fill="#DDE3E9"/>
<rect x="289" y="245.1" width="49" height="6.3" rx="3" fill="#DDE3E9"/>
</g>
<path fill-rule="evenodd" clip-rule="evenodd" d="M271 255C277.627 255 283 249.627 283 243C283 236.373 277.627 231 271 231C264.373 231 259 236.373 259 243C259 249.627 264.373 255 271 255Z" fill="#C5CFD6"/>
<rect x="250" y="272" width="131" height="42" rx="4" fill="white"/>
<g clip-path="url(#clip3)">
<rect x="289" y="284.6" width="73" height="6.3" rx="3" fill="#DDE3E9"/>
<rect x="289" y="295.1" width="49" height="6.3" rx="3" fill="#DDE3E9"/>
</g>
<path fill-rule="evenodd" clip-rule="evenodd" d="M271 305C277.627 305 283 299.627 283 293C283 286.373 277.627 281 271 281C264.373 281 259 286.373 259 293C259 299.627 264.373 305 271 305Z" fill="#AFB9C5"/>
<rect x="250" y="322" width="131" height="42" rx="4" fill="white"/>
<g clip-path="url(#clip4)">
<rect x="289" y="334.6" width="73" height="6.3" rx="3" fill="#DDE3E9"/>
<rect x="289" y="345.1" width="49" height="6.3" rx="3" fill="#DDE3E9"/>
</g>
<path fill-rule="evenodd" clip-rule="evenodd" d="M271 355C277.627 355 283 349.627 283 343C283 336.373 277.627 331 271 331C264.373 331 259 336.373 259 343C259 349.627 264.373 355 271 355Z" fill="#C5CFD6"/>
<path fill-rule="evenodd" clip-rule="evenodd" d="M266.14 376C264.815 376 263.494 376.027 262.171 376.095C261.162 376.148 259.621 375.939 258.768 376.568C257.881 377.221 257.942 378.557 258.081 379.501C258.813 384.493 260.6 388.919 264.339 392.456C270.096 397.901 276.695 400.668 284.504 401.9C289.99 402.766 295.054 401.564 299.092 397.663C302.043 403.139 304.281 409.199 305.404 415.315C305.958 418.333 306.127 421.315 306.03 424.388C305.967 426.356 305.859 428.32 305.648 430.279C305.556 431.13 305.122 432.418 305.455 433.223C305.846 434.167 307.165 434.259 307.757 433.453C308.25 432.783 308.16 431.466 308.261 430.673C308.429 429.355 308.584 428.036 308.695 426.712C308.876 424.569 309.009 422.42 309 420.268C308.977 415.435 307.902 410.583 306.432 405.995C303.612 397.192 299.037 389.369 291.921 383.231C287.545 379.457 282.537 377.929 276.856 377.108C273.318 376.597 269.723 376 266.14 376Z" fill="#89C5CC"/>
<path fill-rule="evenodd" clip-rule="evenodd" d="M286.571 411C272.272 411 262.642 422.524 258.089 434.502C256.372 439.016 255.97 443.974 255.308 448.714C255.096 450.236 255.175 452.554 254.557 453.909C254.333 454.401 253.819 454.577 254.065 455.247C254.214 455.652 254.505 455.901 254.944 455.981C255.843 456.147 257.115 455.167 257.886 454.781C264.282 451.573 268.484 446.613 271.912 440.545C274.038 436.784 276.194 432.879 277.456 428.75C278.227 426.227 278.676 423.571 278.94 420.954C279.044 419.923 279.144 418.868 279.138 417.832C279.132 416.803 278.653 416.259 278.309 415.364C283.08 413.558 288.466 413.066 293.299 414.937C297.769 416.668 301.482 420.013 303.561 424.216C304.101 425.308 304.518 426.46 304.821 427.636C305.02 428.406 305.029 429.404 305.398 430.1C306.29 431.788 308.168 430.66 307.988 429.089C307.485 424.708 304.979 420.309 301.775 417.263C297.734 413.421 292.258 411 286.571 411Z" fill="#89C5CC"/>
<rect x="302" y="158" width="159" height="302" rx="8" fill="#DDE3E9"/>
<path fill-rule="evenodd" clip-rule="evenodd" d="M381 441C389.284 441 396 434.284 396 426C396 417.716 389.284 411 381 411C372.716 411 366 417.716 366 426C366 434.284 372.716 441 381 441Z" fill="white"/>
<path fill-rule="evenodd" clip-rule="evenodd" d="M368 178C369.105 178 370 177.105 370 176C370 174.895 369.105 174 368 174C366.895 174 366 174.895 366 176C366 177.105 366.895 178 368 178Z" fill="white"/>
<rect x="375" y="174" width="21" height="4" rx="2" fill="white"/>
<rect x="316" y="186" width="131" height="54" rx="4" fill="white"/>
<g clip-path="url(#clip5)">
<rect x="325" y="202.2" width="73" height="8.1" rx="3" fill="#DDE3E9"/>
<rect x="325" y="215.7" width="49" height="8.1" rx="3" fill="#DDE3E9"/>
</g>
<path fill-rule="evenodd" clip-rule="evenodd" d="M433 220C436.866 220 440 216.866 440 213C440 209.134 436.866 206 433 206C429.134 206 426 209.134 426 213C426 216.866 429.134 220 433 220Z" fill="#DDE3E9"/>
<path fill-rule="evenodd" clip-rule="evenodd" d="M433 216C434.657 216 436 214.657 436 213C436 211.343 434.657 210 433 210C431.343 210 430 211.343 430 213C430 214.657 431.343 216 433 216Z" fill="#F2F2F2"/>
<rect x="316" y="248" width="131" height="42" rx="4" fill="white"/>
<g clip-path="url(#clip6)">
<rect x="355" y="260.6" width="73" height="6.3" rx="3" fill="#DDE3E9"/>
<rect x="355" y="271.1" width="49" height="6.3" rx="3" fill="#DDE3E9"/>
</g>
<path fill-rule="evenodd" clip-rule="evenodd" d="M337 281C343.627 281 349 275.627 349 269C349 262.373 343.627 257 337 257C330.373 257 325 262.373 325 269C325 275.627 330.373 281 337 281Z" fill="#C5CFD6"/>
<rect x="316" y="298" width="131" height="42" rx="4" fill="white"/>
<g clip-path="url(#clip7)">
<rect x="325" y="310.6" width="73" height="6.3" rx="3" fill="#DDE3E9"/>
<rect x="325" y="321.1" width="49" height="6.3" rx="3" fill="#AFB9C5"/>
</g>
<path fill-rule="evenodd" clip-rule="evenodd" d="M433 326C436.866 326 440 322.866 440 319C440 315.134 436.866 312 433 312C429.134 312 426 315.134 426 319C426 322.866 429.134 326 433 326Z" fill="#DDE3E9"/>
<path fill-rule="evenodd" clip-rule="evenodd" d="M433 322C434.657 322 436 320.657 436 319C436 317.343 434.657 316 433 316C431.343 316 430 317.343 430 319C430 320.657 431.343 322 433 322Z" fill="#F2F2F2"/>
<rect x="316" y="348" width="131" height="42" rx="4" fill="white"/>
<g clip-path="url(#clip8)">
<rect x="355" y="360.6" width="73" height="6.3" rx="3" fill="#DDE3E9"/>
<rect x="355" y="371.1" width="49" height="6.3" rx="3" fill="#DDE3E9"/>
</g>
<path fill-rule="evenodd" clip-rule="evenodd" d="M337 381C343.627 381 349 375.627 349 369C349 362.373 343.627 357 337 357C330.373 357 325 362.373 325 369C325 375.627 330.373 381 337 381Z" fill="#C5CFD6"/>
<rect x="368" y="183" width="335" height="346" rx="8" fill="#F2F2F2"/>
<rect x="617" y="226" width="70" height="81" rx="8" fill="white"/>
<path fill-rule="evenodd" clip-rule="evenodd" d="M652 273C660.837 273 668 265.837 668 257C668 248.163 660.837 241 652 241C643.163 241 636 248.163 636 257C636 265.837 643.163 273 652 273Z" fill="#DDE3E9"/>
<rect x="627" y="277" width="50" height="6" rx="3" fill="#DDE3E9"/>
<rect x="635" y="287" width="34" height="6" rx="3" fill="#DDE3E9"/>
<path d="M368 191C368 186.582 371.582 183 376 183H695C699.418 183 703 186.582 703 191V210H368V191Z" fill="#C5CFD6"/>
<path fill-rule="evenodd" clip-rule="evenodd" d="M381 201C383.209 201 385 199.209 385 197C385 194.791 383.209 193 381 193C378.791 193 377 194.791 377 197C377 199.209 378.791 201 381 201Z" fill="#F2F2F2"/>
<path fill-rule="evenodd" clip-rule="evenodd" d="M393 201C395.209 201 397 199.209 397 197C397 194.791 395.209 193 393 193C390.791 193 389 194.791 389 197C389 199.209 390.791 201 393 201Z" fill="#F2F2F2"/>
<path fill-rule="evenodd" clip-rule="evenodd" d="M405 201C407.209 201 409 199.209 409 197C409 194.791 407.209 193 405 193C402.791 193 401 194.791 401 197C401 199.209 402.791 201 405 201Z" fill="#F2F2F2"/>
<rect x="617" y="315" width="70" height="194" rx="8" fill="white"/>
<rect x="635" y="333" width="34" height="26" rx="4" fill="#DDE3E9"/>
<rect x="635" y="367" width="34" height="25" rx="4" fill="#AFB9C5"/>
<rect x="635" y="400" width="34" height="25" rx="4" fill="#DDE3E9"/>
<rect x="635" y="466" width="34" height="25" rx="4" fill="#DDE3E9"/>
<rect x="635" y="433" width="34" height="25" rx="4" fill="#C5CFD6"/>
<rect x="384" y="227" width="225" height="47" rx="4" fill="white"/>
<g clip-path="url(#clip9)">
<rect x="393" y="241.1" width="167" height="7.05" rx="3" fill="#DDE3E9"/>
<rect x="393" y="252.85" width="112.096" height="7.05" rx="3" fill="#DDE3E9"/>
</g>
<path fill-rule="evenodd" clip-rule="evenodd" d="M584.954 257.5C588.82 257.5 591.954 254.366 591.954 250.5C591.954 246.634 588.82 243.5 584.954 243.5C581.088 243.5 577.954 246.634 577.954 250.5C577.954 254.366 581.088 257.5 584.954 257.5Z" fill="#DDE3E9"/>
<path fill-rule="evenodd" clip-rule="evenodd" d="M584.954 253.5C586.611 253.5 587.954 252.157 587.954 250.5C587.954 248.843 586.611 247.5 584.954 247.5C583.297 247.5 581.954 248.843 581.954 250.5C581.954 252.157 583.297 253.5 584.954 253.5Z" fill="#F2F2F2"/>
<rect x="384" y="282" width="225" height="39" rx="4" fill="white"/>
<g clip-path="url(#clip10)">
<rect x="393" y="293.7" width="167" height="5.85" rx="2.925" fill="#DDE3E9"/>
<rect x="393" y="303.45" width="112.096" height="5.85" rx="2.925" fill="#DDE3E9"/>
</g>
<path fill-rule="evenodd" clip-rule="evenodd" d="M584.954 308.5C588.82 308.5 591.954 305.366 591.954 301.5C591.954 297.634 588.82 294.5 584.954 294.5C581.088 294.5 577.954 297.634 577.954 301.5C577.954 305.366 581.088 308.5 584.954 308.5Z" fill="#DDE3E9"/>
<path fill-rule="evenodd" clip-rule="evenodd" d="M584.954 304.5C586.611 304.5 587.954 303.157 587.954 301.5C587.954 299.843 586.611 298.5 584.954 298.5C583.297 298.5 581.954 299.843 581.954 301.5C581.954 303.157 583.297 304.5 584.954 304.5Z" fill="#F2F2F2"/>
<rect x="384" y="329" width="225" height="39" rx="4" fill="white"/>
<g clip-path="url(#clip11)">
<rect x="393" y="340.7" width="167" height="5.85" rx="2.925" fill="#DDE3E9"/>
<rect x="393" y="350.45" width="112.096" height="5.85" rx="2.925" fill="#DDE3E9"/>
</g>
<path fill-rule="evenodd" clip-rule="evenodd" d="M584.954 355.5C588.82 355.5 591.954 352.366 591.954 348.5C591.954 344.634 588.82 341.5 584.954 341.5C581.088 341.5 577.954 344.634 577.954 348.5C577.954 352.366 581.088 355.5 584.954 355.5Z" fill="#DDE3E9"/>
<path fill-rule="evenodd" clip-rule="evenodd" d="M584.954 351.5C586.611 351.5 587.954 350.157 587.954 348.5C587.954 346.843 586.611 345.5 584.954 345.5C583.297 345.5 581.954 346.843 581.954 348.5C581.954 350.157 583.297 351.5 584.954 351.5Z" fill="#AFB9C5"/>
<rect x="384" y="470" width="225" height="39" rx="4" fill="white"/>
<g clip-path="url(#clip12)">
<rect x="393" y="481.7" width="167" height="5.85" rx="2.925" fill="#DDE3E9"/>
<rect x="393" y="491.45" width="112.096" height="5.85" rx="2.925" fill="#DDE3E9"/>
</g>
<path fill-rule="evenodd" clip-rule="evenodd" d="M584.954 496.5C588.82 496.5 591.954 493.366 591.954 489.5C591.954 485.634 588.82 482.5 584.954 482.5C581.088 482.5 577.954 485.634 577.954 489.5C577.954 493.366 581.088 496.5 584.954 496.5Z" fill="#DDE3E9"/>
<path fill-rule="evenodd" clip-rule="evenodd" d="M584.954 492.5C586.611 492.5 587.954 491.157 587.954 489.5C587.954 487.843 586.611 486.5 584.954 486.5C583.297 486.5 581.954 487.843 581.954 489.5C581.954 491.157 583.297 492.5 584.954 492.5Z" fill="#F2F2F2"/>
<rect x="384" y="423" width="225" height="39" rx="4" fill="white"/>
<g clip-path="url(#clip13)">
<rect x="393" y="434.7" width="167" height="5.85" rx="2.925" fill="#DDE3E9"/>
<rect x="393" y="444.45" width="112.096" height="5.85" rx="2.925" fill="#DDE3E9"/>
</g>
<path fill-rule="evenodd" clip-rule="evenodd" d="M584.954 449.5C588.82 449.5 591.954 446.366 591.954 442.5C591.954 438.634 588.82 435.5 584.954 435.5C581.088 435.5 577.954 438.634 577.954 442.5C577.954 446.366 581.088 449.5 584.954 449.5Z" fill="#DDE3E9"/>
<path fill-rule="evenodd" clip-rule="evenodd" d="M584.954 445.5C586.611 445.5 587.954 444.157 587.954 442.5C587.954 440.843 586.611 439.5 584.954 439.5C583.297 439.5 581.954 440.843 581.954 442.5C581.954 444.157 583.297 445.5 584.954 445.5Z" fill="#F2F2F2"/>
<rect x="384" y="376" width="225" height="39" rx="4" fill="white"/>
<g clip-path="url(#clip14)">
<rect x="393" y="387.7" width="167" height="5.85" rx="2.925" fill="#DDE3E9"/>
<rect x="393" y="397.45" width="112.096" height="5.85" rx="2.925" fill="#DDE3E9"/>
</g>
<path fill-rule="evenodd" clip-rule="evenodd" d="M584.954 402.5C588.82 402.5 591.954 399.366 591.954 395.5C591.954 391.634 588.82 388.5 584.954 388.5C581.088 388.5 577.954 391.634 577.954 395.5C577.954 399.366 581.088 402.5 584.954 402.5Z" fill="#DDE3E9"/>
<path fill-rule="evenodd" clip-rule="evenodd" d="M584.954 398.5C586.611 398.5 587.954 397.157 587.954 395.5C587.954 393.843 586.611 392.5 584.954 392.5C583.297 392.5 581.954 393.843 581.954 395.5C581.954 397.157 583.297 398.5 584.954 398.5Z" fill="#F2F2F2"/>
<path fill-rule="evenodd" clip-rule="evenodd" d="M785.986 353.376C782.041 350.701 776.796 350 772.076 350C753.64 350 736.311 356.84 721.341 367.032C713.138 372.616 705.8 379.728 699.322 387.132C695.582 391.407 692.248 396.03 689.887 401.173C688.294 404.644 687.201 408.261 686.46 411.991C685.557 416.537 684.839 421.175 684.515 425.797C684.387 427.617 683.33 437.274 686.356 437.438C686.338 437.676 686.334 437.903 686.353 438.106C679.782 448.38 675.723 460.42 671.958 471.835C668.683 481.769 665.764 491.786 663.87 502.063C661.375 515.592 659.737 529.326 658.958 543.05C658.791 545.999 658.676 548.95 658.577 551.903C658.493 554.422 658.408 556.941 658.325 559.461C658.233 562.284 657.736 565.534 658.185 568.34C658.576 570.784 660.691 570.414 660.785 567.982C660.898 565.045 660.879 562.102 661.008 559.163C661.179 555.262 661.355 551.361 661.546 547.461C662.875 520.369 667.86 493.675 677.061 468.084C680.785 457.728 685.051 447.925 690.535 438.345C695.356 429.922 701.156 421.767 707.084 414.173C712.845 406.792 718.836 399.583 725.895 393.33C731.624 388.256 737.926 383.835 744.404 379.722C752.631 374.498 760.843 369.401 769.755 365.391C774.388 363.307 779.108 361.441 783.777 359.44C784.617 359.081 785.517 358.732 786.325 358.315C789.02 356.925 788.133 354.832 785.986 353.376Z" fill="#C1DEE2"/>
<path fill-rule="evenodd" clip-rule="evenodd" d="M711.818 448C719.295 448 725.949 448.972 732.838 451.943C738.785 454.508 744.205 457.903 749.467 461.599C756.868 466.798 762.698 472.848 766.779 480.865C769.217 485.654 771.006 492.431 769.368 497.655C767.44 503.807 762.144 508.939 755.169 507.855C750.856 507.185 746.903 504.33 743.625 501.643C739.703 498.428 736.564 494.563 733.972 490.27C729.744 483.267 727.26 475.351 723.668 468.033C721.964 464.56 720.317 461.063 718.275 457.762C717.265 456.128 716.189 454.509 714.656 453.294C713.836 452.644 710.378 451.52 711.7 450.061C692.31 450.315 675.132 465.207 671.409 483.641C671.063 485.359 670.792 487.091 670.505 488.82C670.325 489.911 670.398 493.937 669.422 494.634C667.27 496.172 668.174 491.499 668.267 490.826C668.506 489.087 668.76 487.35 669.027 485.615C670.481 476.181 674.681 467.411 681.685 460.683C689.694 452.99 700.501 448 711.818 448Z" fill="#89C5CC"/>
<path fill-rule="evenodd" clip-rule="evenodd" d="M74.9379 480.736C93.6043 512.052 115.345 542.374 128.401 576.613C127.875 572.577 127.317 568.545 126.692 564.52C123.38 543.179 119.262 521.994 114.936 500.835C112.733 490.062 110.402 479.327 108.012 468.594C106.727 462.829 105.457 457.061 104.145 451.302C103.827 449.906 103.554 447.469 103.157 445C115.845 486.637 128.081 528.305 137.031 570.942C138.205 576.538 139.205 582.124 140.024 587.7C140.304 586.428 140.58 585.156 140.881 583.887C144.503 568.68 149.935 553.594 156.403 539.374C159.495 532.575 163.046 525.924 167.228 519.726C169.836 515.863 175.986 511.271 178.364 507.314C165.355 531.176 160.657 561.032 153.145 586.973C151.312 593.304 149.467 599.624 147.659 605.955C158.987 583.237 176.563 564.571 201 556.483C171.42 576.027 153.678 610.254 141.722 645.26C141.683 645.675 141.636 646.09 141.595 646.506C145.114 639.829 149.545 633.789 155.551 629.56C168.407 620.504 182.667 623.142 195.137 630.91C185.35 624.689 167.663 630.354 159.428 636.677C153.533 641.203 148.495 647.275 144.12 653.2C143.072 654.62 141.641 656.277 140.13 658.044C138.012 671.795 134.56 685.452 129.672 699C130.479 695.111 129.896 688.892 130.12 685.993C130.144 685.68 130.164 685.365 130.188 685.053C129.445 688.019 128.727 690.951 128.036 693.837C129.41 688.331 130.156 682.583 130.739 676.776C130.889 674.281 131.036 671.785 131.19 669.29C131.141 664.553 130.946 659.799 130.616 655.036C129.447 650.408 128.137 646.042 127.056 642.411C123.159 629.31 117.444 616.76 110.411 605.051C103.994 594.366 96.3124 584.688 87.4448 575.935C82.6643 571.217 77.6614 566.725 72.7289 562.17C70.9453 560.523 67.7572 556.474 65 554.363C85.0805 565.434 105.749 577.41 120.398 595.248C118.68 588.653 116.815 582.151 114.842 575.78C104.831 543.454 92.1913 509.953 74.9379 480.736Z" fill="#DDE3E9"/>
<path fill-rule="evenodd" clip-rule="evenodd" d="M95 658C95 693.899 97.8428 723 136 723C174.157 723 177 693.899 177 658" fill="#C5CFD6"/>
<rect x="618" y="140" width="6" height="25" rx="3" fill="#DDE3E9"/>
<rect x="632" y="124" width="6" height="41" rx="3" fill="#DDE3E9"/>
<rect x="646" y="116" width="6" height="49" rx="3" fill="#DDE3E9"/>
<rect x="660" y="124" width="6" height="41" rx="3" fill="#DDE3E9"/>
<rect x="674" y="108" width="6" height="57" rx="3" fill="#C5CFD6"/>
<path fill-rule="evenodd" clip-rule="evenodd" d="M126 414.256C126 403.117 135.002 394 146 394V414.256L132.332 429C128.444 425.395 126 420.107 126 414.256Z" fill="#F2F2F2"/>
<path fill-rule="evenodd" clip-rule="evenodd" d="M145.471 414H165.668C165.668 419.221 163.538 424.113 160.171 427.668C156.468 431.556 151.195 434 145.471 434C140.198 434 135.372 431.891 131.668 428.557L145.471 414Z" fill="#AFB9C5"/>
<path fill-rule="evenodd" clip-rule="evenodd" d="M166 414C166 403.002 156.998 394 146 394V414H166ZM136 394L144 412L126 404C127.78 399.334 131.777 395.78 136 394Z" fill="#C5CFD6"/>
<path fill-rule="evenodd" clip-rule="evenodd" d="M776.766 423.179C774.845 425.219 772.123 426.5 769.095 426.5C763.278 426.5 758.562 421.799 758.562 416C758.562 410.201 763.278 405.5 769.095 405.5V386C752.546 386 739 399.503 739 416C739 432.497 752.546 446 769.095 446C777.788 446 785.645 442.334 791 436.502L776.766 423.179Z" fill="#F2F2F2"/>
<path fill-rule="evenodd" clip-rule="evenodd" d="M769 386V405.5C774.799 405.5 779.5 410.201 779.5 416H799C799 399.503 785.497 386 769 386Z" fill="#AFB9C5"/>
<path fill-rule="evenodd" clip-rule="evenodd" d="M779.097 416C779.097 419.407 777.492 422.435 775 424.391L787.262 440C794.399 434.412 799 425.749 799 416H779.097Z" fill="#C5CFD6"/>
<path fill-rule="evenodd" clip-rule="evenodd" d="M586.051 147.504C584.573 149.068 582.479 150.05 580.15 150.05C575.675 150.05 572.048 146.446 572.048 142C572.048 137.554 575.675 133.95 580.15 133.95V119C567.42 119 557 129.352 557 142C557 154.648 567.42 165 580.15 165C586.837 165 592.88 162.189 597 157.718L586.051 147.504Z" fill="#F2F2F2"/>
<path fill-rule="evenodd" clip-rule="evenodd" d="M580 119V133.95C584.446 133.95 588.05 137.554 588.05 142H603C603 129.352 592.648 119 580 119Z" fill="#AFB9C5"/>
<path fill-rule="evenodd" clip-rule="evenodd" d="M588.073 142C588.073 144.555 586.869 146.827 585 148.293L594.196 160C599.55 155.809 603 149.312 603 142H588.073Z" fill="#C5CFD6"/>
<path fill-rule="evenodd" clip-rule="evenodd" d="M222.007 164.986C222.003 164.996 221.999 165.006 221.993 165.018C221.999 165.008 222.007 164.968 222.007 164.986Z" fill="#C5CFD6"/>
<path fill-rule="evenodd" clip-rule="evenodd" d="M221.998 165.001C221.998 165.003 221.996 165.007 221.996 165.011C221.996 165.001 222.014 164.971 221.998 165.001Z" fill="#C5CFD6"/>
<path fill-rule="evenodd" clip-rule="evenodd" d="M222.067 164.832C222.053 164.872 222.035 164.91 222.019 164.95C222.027 164.93 222.035 164.914 222.043 164.894C221.835 165.414 221.967 165.076 222.067 164.832Z" fill="#C5CFD6"/>
<path fill-rule="evenodd" clip-rule="evenodd" d="M222.022 164.953C222.014 164.971 222.006 164.991 221.998 165.009C221.94 165.121 222.022 164.953 222.022 164.953Z" fill="#C5CFD6"/>
<path fill-rule="evenodd" clip-rule="evenodd" d="M221.999 165.002C221.999 165 221.999 165 222.001 164.998C221.999 165 221.999 165 221.999 165.002Z" fill="#C5CFD6"/>
<path fill-rule="evenodd" clip-rule="evenodd" d="M221.99 165.016C221.978 165.04 222.046 164.924 221.99 165.016V165.016Z" fill="#C5CFD6"/>
<path fill-rule="evenodd" clip-rule="evenodd" d="M221.998 165.002L222.002 164.998C222 165 222 165.002 221.998 165.002Z" fill="#C5CFD6"/>
<rect x="174" y="113" width="95" height="63" rx="4" fill="#DDE3E9"/>
<path fill-rule="evenodd" clip-rule="evenodd" d="M210 131L182 176H238L210 131Z" fill="#AFB9C5"/>
<path fill-rule="evenodd" clip-rule="evenodd" d="M237.5 143L213 176H262L237.5 143Z" fill="#C5CFD6"/>
<path fill-rule="evenodd" clip-rule="evenodd" d="M248 143C252.971 143 257 138.971 257 134C257 129.029 252.971 125 248 125C243.029 125 239 129.029 239 134C239 138.971 243.029 143 248 143Z" fill="white"/>
<path fill-rule="evenodd" clip-rule="evenodd" d="M698.993 591.986C698.997 591.996 699.001 592.006 699.007 592.018C699.001 592.008 698.993 591.968 698.993 591.986Z" fill="#C5CFD6"/>
<path fill-rule="evenodd" clip-rule="evenodd" d="M699.002 592.001C699.002 592.003 699.004 592.007 699.004 592.011C699.004 592.001 698.986 591.971 699.002 592.001Z" fill="#C5CFD6"/>
<path fill-rule="evenodd" clip-rule="evenodd" d="M698.933 591.832C698.947 591.872 698.965 591.91 698.981 591.95C698.973 591.93 698.965 591.914 698.957 591.894C699.165 592.414 699.033 592.076 698.933 591.832Z" fill="#C5CFD6"/>
<path fill-rule="evenodd" clip-rule="evenodd" d="M698.978 591.953C698.986 591.971 698.994 591.991 699.002 592.009C699.06 592.121 698.978 591.953 698.978 591.953Z" fill="#C5CFD6"/>
<path fill-rule="evenodd" clip-rule="evenodd" d="M699.001 592.002C699.001 592 699.001 592 698.999 591.998C699.001 592 699.001 592 699.001 592.002Z" fill="#C5CFD6"/>
<path fill-rule="evenodd" clip-rule="evenodd" d="M699.01 592.016C699.022 592.04 698.954 591.924 699.01 592.016V592.016Z" fill="#C5CFD6"/>
<path fill-rule="evenodd" clip-rule="evenodd" d="M699.002 592.002L698.998 591.998C699 592 699 592.002 699.002 592.002Z" fill="#C5CFD6"/>
<rect width="142" height="94" rx="4" transform="matrix(-1 0 0 1 770 515)" fill="#DDE3E9"/>
<path fill-rule="evenodd" clip-rule="evenodd" d="M717.274 542L758.329 609H676.219L717.274 542Z" fill="#AFB9C5"/>
<path fill-rule="evenodd" clip-rule="evenodd" d="M674.944 559.946L711.239 609H638.649L674.944 559.946Z" fill="#C5CFD6"/>
<path fill-rule="evenodd" clip-rule="evenodd" d="M659.5 560C652.044 560 646 553.956 646 546.5C646 539.044 652.044 533 659.5 533C666.956 533 673 539.044 673 546.5C673 553.956 666.956 560 659.5 560Z" fill="white"/>
<defs>
<clipPath id="clip0">
<rect width="837.341" height="272.541" fill="white" transform="translate(49.3297 416.965)"/>
</clipPath>
<clipPath id="clip1">
<rect width="73" height="21.6" fill="white" transform="translate(289 176.2)"/>
</clipPath>
<clipPath id="clip2">
<rect width="73" height="16.8" fill="white" transform="translate(289 234.6)"/>
</clipPath>
<clipPath id="clip3">
<rect width="73" height="16.8" fill="white" transform="translate(289 284.6)"/>
</clipPath>
<clipPath id="clip4">
<rect width="73" height="16.8" fill="white" transform="translate(289 334.6)"/>
</clipPath>
<clipPath id="clip5">
<rect width="73" height="21.6" fill="white" transform="translate(325 202.2)"/>
</clipPath>
<clipPath id="clip6">
<rect width="73" height="16.8" fill="white" transform="translate(355 260.6)"/>
</clipPath>
<clipPath id="clip7">
<rect width="73" height="16.8" fill="white" transform="translate(325 310.6)"/>
</clipPath>
<clipPath id="clip8">
<rect width="73" height="16.8" fill="white" transform="translate(355 360.6)"/>
</clipPath>
<clipPath id="clip9">
<rect width="167" height="18.8" fill="white" transform="translate(393 241.1)"/>
</clipPath>
<clipPath id="clip10">
<rect width="167" height="15.6" fill="white" transform="translate(393 293.7)"/>
</clipPath>
<clipPath id="clip11">
<rect width="167" height="15.6" fill="white" transform="translate(393 340.7)"/>
</clipPath>
<clipPath id="clip12">
<rect width="167" height="15.6" fill="white" transform="translate(393 481.7)"/>
</clipPath>
<clipPath id="clip13">
<rect width="167" height="15.6" fill="white" transform="translate(393 434.7)"/>
</clipPath>
<clipPath id="clip14">
<rect width="167" height="15.6" fill="white" transform="translate(393 387.7)"/>
</clipPath>
</defs>
</svg>
