<svg width="1440" height="888" viewBox="0 0 1440 888" fill="none" xmlns="http://www.w3.org/2000/svg">
<path fill-rule="evenodd" clip-rule="evenodd" d="M233.48 653.501C258.777 555.697 514.75 611.414 682.564 581.178C850.377 550.942 1048.91 410.125 1180.31 479.104C1311.7 548.083 1171.9 714.826 870.537 752.454C569.172 790.082 208.183 751.305 233.48 653.501Z" fill="#F2F2F2"/>
<g opacity="0.5">
<path fill-rule="evenodd" clip-rule="evenodd" d="M450.908 231.672C449.335 233.243 449.946 238.824 449.913 240.89C449.862 244.106 450.062 247.292 450.331 250.496C450.511 252.642 451.527 273.114 454.352 271.542C455.945 270.656 454.947 264.734 454.944 262.86C454.937 258.696 454.764 254.542 454.487 250.387C454.229 246.529 454.066 242.716 454.215 238.851C454.251 237.908 455.134 227.439 450.908 231.672Z" fill="#89C5CC"/>
<path fill-rule="evenodd" clip-rule="evenodd" d="M519.409 229.149C505.896 229.256 492.388 229.923 478.881 230.331C472.381 230.528 465.886 230.778 459.394 231.138C457.181 231.261 452.436 230.552 450.593 231.731C446.501 234.348 453.1 234.96 454.859 234.896C481.59 233.927 508.329 232.65 535.082 232.59C548.206 232.561 561.323 232.934 574.448 232.851C579.465 232.819 585.02 230.657 586.287 236.497C587.717 243.086 586.074 250.423 585.627 257.045C585.329 261.465 585.435 265.794 585.634 270.211C585.762 273.04 585.429 276.228 585.93 279.005C586.411 281.679 588.333 283.282 590.095 280.287C591.148 278.497 590.624 274.078 590.694 272.005C590.788 269.213 590.7 266.421 590.7 263.628C590.699 256.811 591.661 250.022 591.534 243.206C591.452 238.811 591.219 230.844 585.676 229.788C579.572 228.625 572.069 229.794 565.822 229.723C550.344 229.546 534.892 229.028 519.409 229.149Z" fill="#89C5CC"/>
<path fill-rule="evenodd" clip-rule="evenodd" d="M482.174 271.786C477.078 271.786 471.982 271.817 466.887 271.901C462.517 271.973 455.647 271.063 451.579 272.626C448.795 273.696 448.056 276.805 451.579 277.633C455.423 278.536 461.215 277.059 465.236 276.989C485.4 276.633 505.758 276.169 525.894 277.444C544.762 278.638 563.993 279.797 582.888 278.536C584.478 278.43 592.586 278.107 588.886 275.068C586.728 273.294 577.979 274.46 575.174 274.376C565.28 274.077 555.376 274.011 545.485 273.636C535.722 273.265 526.004 272.168 516.238 271.896C504.893 271.58 493.523 271.786 482.174 271.786Z" fill="#89C5CC"/>
<path fill-rule="evenodd" clip-rule="evenodd" d="M477.075 242.804C485.017 243.151 492.875 254.669 484.839 260.235C477.3 265.459 463.172 259.734 467.364 249.606C466.761 251.07 468.126 248.015 468.143 247.995C468.94 247.056 470.371 246.016 471.354 245.276C472.478 244.428 473.649 243.496 475.005 243.071C475.895 242.792 475.755 243.841 477.075 242.804ZM473.207 238.65C469.49 240.101 467.794 241.738 465.239 244.701C463.472 246.751 461.218 247.83 461.238 250.6C461.243 251.213 462.03 251.887 462.167 252.478C462.355 253.294 462.137 254.34 462.286 255.207C463.824 264.157 474.501 267.174 482.317 265.484C489.125 264.012 494.217 257.477 492.64 250.37C491.052 243.216 480.444 235.819 473.207 238.65Z" fill="#89C5CC"/>
<path fill-rule="evenodd" clip-rule="evenodd" d="M469.896 251.143C469.896 254.362 474.982 254.362 474.982 251.143C474.982 247.96 469.896 247.823 469.896 251.143Z" fill="#89C5CC"/>
<path fill-rule="evenodd" clip-rule="evenodd" d="M476.258 250.491C476.258 253.049 480.299 253.049 480.299 250.491C480.299 247.962 476.258 247.854 476.258 250.491Z" fill="#89C5CC"/>
<path fill-rule="evenodd" clip-rule="evenodd" d="M477.51 255.767C476.216 256.264 474.574 255.233 473.512 255.912C471.631 257.117 473.517 258.206 474.525 258.69C479.065 260.869 479.873 254.861 477.51 255.767Z" fill="#89C5CC"/>
<path fill-rule="evenodd" clip-rule="evenodd" d="M546.85 248.632C546.714 248.689 546.233 248.893 546.85 248.632V248.632ZM527.077 245.742C523.679 246.509 520.81 249.683 517.118 249.258C514.289 248.933 512.373 246.202 509.58 245.806C506.007 245.298 496.282 253.449 501.395 254.847C504.378 255.663 506.033 250.212 508.668 249.922C510.753 249.693 513.588 252.25 515.748 252.614C519.778 253.293 522.546 251.073 526.083 249.641C529.928 248.086 532.115 249.487 535.458 251.216C538.097 252.58 540.583 253.469 543.602 252.906C546.436 252.378 549.996 249.463 552.849 249.762C555.643 250.055 557.637 252.971 560.511 253.242C561.696 253.353 563.46 253.757 563.261 251.929C563.101 250.465 561.468 250.713 560.446 250.181C557.818 248.812 555.36 246.388 552.189 246.595C549.803 246.751 547.631 248.427 545.433 249.229C538.233 251.855 534.185 244.148 527.077 245.742Z" fill="#89C5CC"/>
<path fill-rule="evenodd" clip-rule="evenodd" d="M533.092 292.111C519.204 292.239 505.268 292.445 491.419 293.558C488.135 293.822 454.608 296.988 454.672 297.216C454.789 297.637 459.101 298.282 459.075 298.381C458.784 297.661 458.12 297.362 457.082 297.487C488.879 297.487 520.576 294.64 552.415 295.152C560.416 295.28 568.446 295.227 576.44 295.479C578.436 295.542 583.381 296.972 584.949 296.071C589.062 293.706 581.589 293.433 580.352 293.334C564.683 292.08 548.805 291.954 533.092 292.111Z" fill="#69A1AC"/>
<path fill-rule="evenodd" clip-rule="evenodd" d="M450.556 298.859C448.479 300.941 450.391 308.43 450.473 311.245C450.591 315.314 450.494 319.412 450.851 323.471C451.259 328.107 451.891 333.047 453.107 337.545C453.777 340.023 456.129 343.961 457.061 339.459C457.726 336.242 456.716 331.976 456.364 328.7C455.894 324.317 455.78 319.992 455.763 315.587C455.747 311.75 455.673 307.896 455.358 304.071C455.195 302.085 454.196 295.238 450.556 298.859Z" fill="#69A1AC"/>
<path fill-rule="evenodd" clip-rule="evenodd" d="M502.794 336.998C492.938 337.167 483.061 337.4 473.222 338.015C469.189 338.268 465.159 338.644 461.141 339.07C460.322 339.157 451.247 339.525 455.302 342.875C457.132 344.387 464.661 342.296 467.147 342.078C471.33 341.712 475.511 341.473 479.705 341.296C489.424 340.883 499.172 340.519 508.9 340.688C526.667 340.996 544.319 341.134 562.09 340.737C564.615 340.681 584.396 341.21 585.068 338.583C585.609 336.466 578.535 337.437 577.245 337.475C572.514 337.617 567.782 337.584 563.048 337.56C542.997 337.457 522.83 336.659 502.794 336.998Z" fill="#69A1AC"/>
<path fill-rule="evenodd" clip-rule="evenodd" d="M581.719 295.347C582.032 304.122 583.526 312.887 584.004 321.689C584.222 325.712 584.479 329.732 584.676 333.757C584.74 335.056 584.217 338.184 585.752 338.931C587.858 339.955 588.142 337.891 588.536 336.495C589.675 332.462 588.904 327.224 588.801 323.081C588.701 319.07 588.694 315.051 588.398 311.047C588.095 306.957 587.272 302.943 586.889 298.867C586.728 297.143 587.293 294.274 585.463 293.204C583.881 292.279 581.65 293.445 581.719 295.347Z" fill="#69A1AC"/>
<path fill-rule="evenodd" clip-rule="evenodd" d="M484.845 309.944C484.882 309.973 484.919 310.002 484.956 310.031C484.919 310.002 484.882 309.973 484.845 309.944ZM476.469 307.344C479.592 308.236 482.157 307.904 485.141 310.177C487.614 312.063 490.151 314.821 490.971 317.869C492.866 324.911 486.441 328.771 480.418 328.847C474.248 328.924 465.115 327.493 465.431 319.585C465.674 313.509 470.11 307.58 476.469 307.344ZM476.689 303.364C468.59 303.767 462.057 312.863 462.127 320.518C462.212 329.797 472.725 332.188 480.194 332.252C488.623 332.324 497.028 326.504 494.77 317.025C492.96 309.431 484.477 302.96 476.689 303.364Z" fill="#69A1AC"/>
<path fill-rule="evenodd" clip-rule="evenodd" d="M468.542 315.822C468.542 318.41 472.63 318.41 472.63 315.822C472.63 313.265 468.542 313.155 468.542 315.822Z" fill="#69A1AC"/>
<path fill-rule="evenodd" clip-rule="evenodd" d="M477.117 314.687C477.117 317.295 481.237 317.295 481.237 314.687C481.237 312.109 477.117 311.998 477.117 314.687Z" fill="#69A1AC"/>
<path fill-rule="evenodd" clip-rule="evenodd" d="M472.39 320.589C469.729 323.245 479.076 327.902 481.281 324.207C483.091 321.171 479.149 322.178 477.752 322.014C476.233 321.835 473.629 319.352 472.39 320.589Z" fill="#69A1AC"/>
<path fill-rule="evenodd" clip-rule="evenodd" d="M547.124 314.74C546.868 314.848 546.868 314.848 547.124 314.74V314.74ZM512.022 310.416C509.328 310.921 500.486 313.904 500.367 317.1C500.148 322.91 508.808 316.959 510.688 316.195C515.796 314.119 518.48 318.354 523.612 318.577C528.068 318.771 532.166 314.957 536.364 315.408C540.763 315.881 542.878 320.56 547.956 318.076C550.643 316.762 550.575 314.735 547.559 314.544C545.737 314.429 544.484 315.182 542.584 314.398C539.612 313.172 538.415 311.176 534.859 311.493C532.175 311.733 529.75 313.245 527.13 313.831C521.132 315.171 517.805 309.332 512.022 310.416Z" fill="#69A1AC"/>
<path fill-rule="evenodd" clip-rule="evenodd" d="M567.818 317.263C567.632 317.341 567.632 317.341 567.818 317.263V317.263ZM568.497 314.844C568.527 314.857 568.73 315.139 568.497 314.844V314.844ZM565.409 312.997C565.293 313.087 565.293 313.087 565.409 312.997V312.997ZM565.476 312.974C566.075 313.333 570.89 316.625 567.393 317.401C565.617 317.794 564.148 314.222 565.476 312.974ZM563.882 309.327C556.169 312.844 564.469 325.429 570.522 320.316C573.069 318.164 573.404 313.815 570.926 311.573C569.442 310.23 565.897 308.406 563.882 309.327Z" fill="#69A1AC"/>
<path fill-rule="evenodd" clip-rule="evenodd" d="M491.477 358.921C481.852 358.924 472.143 358.722 462.531 359.292C460.914 359.388 454.752 359.08 453.918 360.771C452.394 363.864 458.734 362.329 459.655 362.236C478.793 360.32 498.784 361.423 517.985 361.969C533.689 362.415 549.308 362.692 564.993 363.502C569.116 363.714 573.235 363.949 577.355 364.198C578.698 364.279 582.077 365.169 582.361 363.024C582.622 361.039 578.407 361.488 577.354 361.432C568.979 360.991 560.61 360.529 552.237 360.058C532.085 358.922 511.661 358.917 491.477 358.921Z" fill="#89C5CC"/>
<path fill-rule="evenodd" clip-rule="evenodd" d="M453.609 362.36C451.812 364.147 452.654 370.971 452.604 373.227C452.516 377.171 452.33 381.113 452.247 385.057C452.16 389.178 452.28 393.319 452.524 397.435C452.626 399.163 454.045 407.515 456.278 402.736C457.276 400.6 456.254 394.651 456.269 392.23C456.297 387.826 456.534 383.44 456.753 379.041C456.941 375.26 456.948 371.475 457.114 367.693C457.166 366.488 457.309 358.65 453.609 362.36Z" fill="#89C5CC"/>
<path fill-rule="evenodd" clip-rule="evenodd" d="M583.98 397.595C574.613 398.555 565.096 398.102 555.694 398.811C547.591 399.422 539.495 399.672 531.371 399.844C512.975 400.232 494.547 400.611 476.204 402.144C472.024 402.493 467.848 402.864 463.657 403.051C461.561 403.145 452.764 402.191 452.109 404.4C450.993 408.164 460.4 406.674 462.429 406.616C466.891 406.487 471.332 406.164 475.781 405.825C494.485 404.4 513.259 403.974 532.003 403.382C542.196 403.06 552.319 402.314 562.49 401.636C567.56 401.298 572.643 401.287 577.712 400.959C579.039 400.873 583.734 401.042 584.688 399.975C585.343 399.242 585.509 397.453 583.98 397.595Z" fill="#89C5CC"/>
<path fill-rule="evenodd" clip-rule="evenodd" d="M580.805 363C581.126 371.983 581.634 380.958 581.937 389.94C582.028 392.641 581.212 397.482 582.716 399.865C585.135 403.695 587.023 399.641 587.465 397.254C588.863 389.721 587.361 381.4 586.97 373.82C586.821 370.929 587.719 364.493 586.322 361.905C584.991 359.44 580.685 359.688 580.805 363Z" fill="#89C5CC"/>
<path fill-rule="evenodd" clip-rule="evenodd" d="M565.079 375.794C568.668 376.766 569.192 384.567 565.143 385.145C559.116 386.004 561.752 377.402 565.079 375.794ZM564.074 372.691C562.979 372.657 560.453 372.355 559.778 373.246C559.214 373.992 559.784 375.565 559.718 376.275C559.481 378.813 557.417 380.279 558.34 383.276C558.966 385.31 560.643 387.221 562.687 387.927C573.472 391.655 573.341 370.816 564.074 372.691Z" fill="#89C5CC"/>
<path fill-rule="evenodd" clip-rule="evenodd" d="M466.702 374.091C466.675 374.125 466.648 374.159 466.621 374.194C466.648 374.159 466.675 374.125 466.702 374.091ZM475.173 369.584C475.13 369.223 475.088 368.862 475.046 368.501C480.894 371.261 485.547 376.396 483.605 383.288C482.123 388.546 476.771 390.411 471.784 389.113C466.263 387.675 463.625 383.125 465.114 377.538C465.801 374.96 467.909 371.496 470.635 370.667C471.904 370.281 474.71 371.265 475.173 369.584ZM471.753 367.401C470.274 367.501 468.834 368.117 467.627 368.96C468.757 368.004 470.263 367.435 471.753 367.401ZM471.795 364.005C468.142 364.117 465.747 366.329 463.58 368.985C462.9 369.819 460.6 372.03 460.885 373.154C461.11 374.042 461.699 375.341 462.94 374.35C456.442 387.3 473.228 398.346 483.475 389.34C493.038 380.936 483.55 363.611 471.795 364.005Z" fill="#89C5CC"/>
<path fill-rule="evenodd" clip-rule="evenodd" d="M468.476 376.035C468.476 377.759 471.153 377.759 471.153 376.035C471.153 374.31 468.476 374.31 468.476 376.035Z" fill="#89C5CC"/>
<path fill-rule="evenodd" clip-rule="evenodd" d="M473.044 376.329C473.044 378.082 475.764 378.082 475.764 376.329C475.764 374.576 473.044 374.576 473.044 376.329Z" fill="#89C5CC"/>
<path fill-rule="evenodd" clip-rule="evenodd" d="M475.117 382.484C473.845 382.587 469.186 382.155 468.369 383.269C467.002 385.132 469.183 385.197 470.254 385.398C471.219 385.579 475.413 385.477 476.004 384.62C476.526 383.863 476.404 382.374 475.117 382.484Z" fill="#89C5CC"/>
<path fill-rule="evenodd" clip-rule="evenodd" d="M531.241 377.653C531.022 377.744 531.022 377.744 531.241 377.653V377.653ZM513.64 376.366C510.772 376.577 508.344 378.226 505.602 378.884C502.676 379.587 501.409 378.295 498.748 377.449C495.98 376.569 494.011 376.917 491.786 378.807C490.526 379.878 487.76 382.344 488.548 384.247C490.352 388.602 494.436 381.516 496.357 381.186C499.353 380.672 502.019 383.292 505.475 382.543C508.606 381.864 511.384 379.714 514.654 379.691C517.389 379.671 519.966 381.168 522.666 381.53C526.788 382.083 529.494 380.619 533.304 379.533C536.608 378.591 538.924 379.833 542.032 380.878C543.452 381.355 548.191 383.091 547.319 379.944C547.072 379.054 540.827 377.464 539.859 377.159C536.445 376.08 534.283 376.5 531.03 377.74C528.318 378.775 526.036 379.279 523.128 378.71C519.924 378.082 517.01 376.11 513.64 376.366Z" fill="#89C5CC"/>
</g>
<g opacity="0.5">
<path fill-rule="evenodd" clip-rule="evenodd" d="M645.575 232.012C646.038 222.055 646.674 212.113 647.009 202.15C647.176 197.214 647.306 192.276 647.432 187.339C647.459 186.239 647.488 185.14 647.513 184.041C647.594 180.306 647.151 180 650.91 179.668C667.679 178.188 684.515 177.698 701.304 176.358C721.553 174.743 741.907 173.628 762.213 173.128C771.236 172.906 780.298 172.445 789.323 172.725C791.322 172.787 795.247 172.267 796.035 173.821C796.375 174.493 795.661 176.804 795.571 177.578C795.288 179.999 795.024 182.428 794.861 184.861C793.901 199.208 794.473 213.917 797.251 228.047C790.734 224.372 782.5 221.211 774.904 221.838C767.16 222.478 761.367 226.952 755.168 231.07C751.662 233.4 750.481 234.012 746.983 231.756C743.968 229.811 741.116 227.588 738.272 225.405C733.883 222.037 729.741 218.386 725.485 214.855C717.66 208.363 706.878 199.122 696.07 201.843C688.348 203.787 681.218 208.031 674.516 212.184C664.558 218.355 655.545 225.912 645.575 232.012ZM779.779 168.304C741.306 168.304 703.121 172.033 664.756 174.051C660.749 174.261 656.756 174.572 652.764 174.957C650.103 175.214 643.596 174.135 641.852 176.409C640.688 177.926 641.688 178.153 641.852 179.595C642.058 181.411 641.936 183.563 641.883 185.486C641.755 190.118 641.62 194.75 641.515 199.383C641.118 216.893 640.869 234.4 641.578 251.905C641.733 255.723 643.124 261.009 642.363 264.719C641.812 267.405 639.97 269.039 644.218 269.535C648.398 270.024 653.509 268.781 657.693 268.383C661.901 267.983 666.108 267.548 670.321 267.201C688.638 265.692 707.133 265.92 725.499 265.418C744.029 264.912 762.567 264.88 781.104 264.869C788.86 264.865 797.723 265.301 805.291 263.167C807.953 262.415 808.384 262.045 807.727 259.404C807.603 258.902 806.799 258.717 806.563 257.811C806.242 256.578 806.407 255.079 806.332 253.796C806.087 249.604 806.001 245.404 805.804 241.21C805.474 234.201 804.266 227.399 803.372 220.461C802.341 212.449 802.394 204.313 802.373 196.248C802.361 191.775 802.476 187.316 802.835 182.855C803.066 179.994 804.475 175.722 803.76 173.054C803.404 171.725 802.822 170.672 801.439 170.1C800.563 169.737 799.826 170.021 798.96 169.929C797.933 169.82 797.292 169.676 796.062 169.398C790.789 168.203 785.151 168.304 779.779 168.304Z" fill="#69A1AC"/>
<path fill-rule="evenodd" clip-rule="evenodd" d="M758.487 187.352C758.484 190.141 758.049 194.255 759.335 196.881C760.965 200.211 763.005 199.17 763.545 196.041C763.855 194.247 763.847 188.941 763.271 187.352C762.456 185.104 758.487 183.573 758.487 187.352Z" fill="#89C5CC"/>
<path fill-rule="evenodd" clip-rule="evenodd" d="M763.166 188.429C760.548 188.521 752.924 187.893 751.153 189.998C748.115 193.608 753.404 194.247 755.675 194.045C758.303 193.811 766.423 194.382 768.183 192.275C771.127 188.749 765.224 188.354 763.166 188.429Z" fill="#89C5CC"/>
<path fill-rule="evenodd" clip-rule="evenodd" d="M661.583 281.579C673.091 283.578 669.511 301.125 658.621 297.06C654.827 295.644 649.237 291.552 651.334 286.731C652.9 283.129 658.006 281.236 661.583 281.579ZM656.818 276.124C649.334 277.384 644.217 285.483 646.783 292.548C649.259 299.363 658.648 304.354 665.573 301.905C672.183 299.566 675.481 290.771 673.253 284.337C670.924 277.615 663.338 275.026 656.818 276.124Z" fill="#89C5CC"/>
<path fill-rule="evenodd" clip-rule="evenodd" d="M726.816 283.632C723.951 283.869 721.475 285.875 718.592 286.231C715.896 286.563 713.662 285.64 711.138 284.903C708.087 284.012 705.289 283.62 702.171 284.412C699.789 285.017 697.439 286.638 694.964 286.834C690.094 287.218 684.434 281.662 680.632 287.946C678.809 290.959 681.456 292.9 684.182 291.495C687.024 290.03 685.629 289.506 689.155 290.371C692.096 291.092 694.474 291.484 697.42 290.473C700.089 289.558 702.432 287.882 705.333 287.694C708.174 287.51 710.645 288.804 713.36 289.362C716.699 290.048 719.653 289.529 722.817 288.482C725.826 287.487 727.027 286.942 730.064 287.83C731.986 288.393 736.187 290.18 738.058 288.74C741.294 286.251 736.962 285.887 735.256 285.533C732.509 284.964 729.667 283.398 726.816 283.632Z" fill="#89C5CC"/>
<path fill-rule="evenodd" clip-rule="evenodd" d="M792.384 281.959C792.407 281.977 792.43 281.995 792.452 282.012C792.43 281.995 792.406 281.977 792.384 281.959ZM789.571 281.371C793.754 281.64 798.277 289.26 792.735 289.53C788.834 289.721 784.469 283.049 789.571 281.371ZM788.984 275.136C775.758 278.829 781.804 297.477 794.562 295.323C800.357 294.344 802.321 287.631 800.405 282.661C799.582 280.526 797.978 278.727 796.061 277.498C794.647 276.592 790.601 274.686 788.984 275.136Z" fill="#89C5CC"/>
<path fill-rule="evenodd" clip-rule="evenodd" d="M727.276 314.065C738.915 313.666 750.555 313.266 762.206 313.158C768.52 313.1 774.8 313.21 781.105 313.572C783.902 313.732 786.696 313.887 789.495 314.005C789.977 314.026 790.644 313.993 791.38 313.957C793.112 313.872 795.227 313.768 796.222 314.294C801.788 317.238 790.448 317.561 789.07 317.538C785.983 317.486 782.899 317.333 779.815 317.181C777.12 317.048 774.425 316.915 771.727 316.848C754.42 316.423 737.008 317.201 719.671 317.975C715.697 318.152 711.727 318.33 707.763 318.492C703.554 318.665 699.347 318.777 695.14 318.888C689.125 319.048 683.111 319.208 677.097 319.546C674.801 319.675 672.505 319.811 670.208 319.948C666.919 320.144 663.63 320.34 660.339 320.513C657.763 320.649 655.186 320.781 652.607 320.846C652.142 320.857 651.537 320.922 650.876 320.992L650.876 320.992H650.876C649.277 321.163 647.353 321.368 646.313 320.943C645.063 320.432 644.052 319.717 644.739 318.201C645.321 316.92 647.434 317.074 648.974 317.186C649.395 317.217 649.773 317.244 650.065 317.238C654.989 317.143 659.902 316.866 664.817 316.565C666.615 316.455 668.412 316.342 670.209 316.229L670.21 316.229L670.21 316.229L670.21 316.229L670.21 316.229C679.567 315.641 688.915 315.053 698.295 314.893C707.959 314.728 717.617 314.396 727.276 314.065ZM788.065 390.668L791.411 390.628C793.139 390.778 793.912 392.592 792.803 393.986C791.953 395.054 788.684 395.102 786.553 395.133C785.962 395.142 785.459 395.15 785.119 395.177C779.556 395.624 774.004 395.825 768.424 395.879C756.674 395.99 744.968 396.494 733.237 397.163C721.229 397.848 709.211 398.105 697.192 398.363H697.191C688.349 398.552 679.506 398.742 670.667 399.101C665.605 399.307 660.542 399.461 655.478 399.594C654.934 399.608 654.21 399.686 653.391 399.774C650.192 400.12 645.544 400.622 644.491 398.081C643.556 395.827 644.855 394.789 646.755 394.317C646.455 392.982 646.511 391.106 646.543 390.031C646.552 389.708 646.56 389.457 646.555 389.315C646.507 387.968 646.473 386.62 646.44 385.272C646.402 383.745 646.365 382.218 646.306 380.691C646.253 379.306 646.203 377.919 646.153 376.531C645.957 371.059 645.761 365.573 645.34 360.123C645.145 357.607 644.837 355.121 644.529 352.639C644.038 348.676 643.547 344.723 643.525 340.678C643.521 339.95 643.484 339.04 643.443 338.013C643.233 332.761 642.901 324.457 646.161 321.928C651.91 318.573 650.774 328.256 650.266 332.577C650.183 333.291 650.116 333.858 650.1 334.197C649.77 341.382 650.218 348.252 650.942 355.392C651.43 360.214 651.145 365.02 650.859 369.834C650.757 371.553 650.655 373.273 650.588 374.996C650.555 375.848 650.526 376.7 650.496 377.551C650.406 380.172 650.315 382.791 650.118 385.409C650.096 385.692 650.089 386.235 650.08 386.929C650.054 388.886 650.013 392.044 649.594 393.961C650.486 393.922 651.352 393.932 652.067 393.94C652.523 393.945 652.917 393.949 653.219 393.94C654.591 393.898 655.964 393.858 657.337 393.818C661.39 393.699 665.444 393.58 669.497 393.428C679.065 393.068 688.636 392.948 698.207 392.828C709.512 392.686 720.816 392.544 732.115 392.007C750.737 391.122 769.423 390.895 788.065 390.668ZM791.519 320.42C791.509 332.729 792.461 344.7 793.573 356.96C794.261 364.543 794.812 372.155 795.251 379.757C795.272 380.109 795.268 380.696 795.265 381.432V381.433C795.242 385.637 795.194 394.695 799.349 392.528C802.486 390.892 801.28 381.405 800.613 376.155L800.613 376.155C800.467 375.004 800.346 374.056 800.303 373.44C800.212 372.127 800.122 370.814 800.032 369.502C799.614 363.408 799.197 357.318 798.647 351.231L798.531 349.947C797.895 342.917 797.259 335.891 797.146 328.827C797.137 328.243 797.193 327.43 797.257 326.51C797.44 323.851 797.685 320.31 796.58 318.898C795.026 316.911 791.522 317.498 791.519 320.42Z" fill="#69A1AC"/>
<path fill-rule="evenodd" clip-rule="evenodd" d="M727.808 350.595C742.674 343.869 757.714 337.065 773.174 332.22C774.291 331.87 774.998 333.022 774.744 333.989C774.482 334.985 772.064 335.835 770.46 336.399C769.98 336.568 769.573 336.711 769.319 336.824C767.16 337.789 764.995 338.741 762.83 339.694C760.613 340.669 758.396 341.645 756.185 342.633C751.587 344.687 746.985 346.733 742.383 348.778C737.454 350.968 732.526 353.158 727.603 355.36C727.416 355.443 727.229 355.527 727.043 355.61C733.737 357.989 740.393 360.474 747.02 363.035C749.285 363.909 751.542 364.803 753.799 365.696C755.076 366.201 756.352 366.706 757.631 367.208C758.047 367.371 758.772 367.593 759.643 367.859C762.481 368.725 766.871 370.066 767.196 371.42C767.724 373.626 761.662 371.492 759.376 370.687C759.072 370.58 758.835 370.497 758.689 370.45C755.314 369.371 751.98 368.17 748.648 366.969L748.187 366.802C745.545 365.851 742.908 364.889 740.271 363.927C735.119 362.049 729.968 360.17 724.788 358.368C724.056 358.113 723.323 357.859 722.59 357.606C714.278 361.34 705.982 365.109 697.714 368.938C693.28 370.992 688.871 373.093 684.473 375.222C683.513 375.687 682.325 376.405 681.033 377.186C677.939 379.056 674.255 381.283 671.721 381.227C670.362 381.197 669.446 380.906 669.304 379.259C669.158 377.559 671.339 376.668 672.907 376.027C673.282 375.873 673.622 375.734 673.887 375.602C678.587 373.251 683.316 370.96 688.059 368.698C697.479 364.205 706.987 359.891 716.529 355.663C716.583 355.639 716.638 355.615 716.693 355.59C711.401 353.8 706.095 352.051 700.777 350.34C700.246 350.169 699.157 349.868 697.726 349.471C690.965 347.599 676.563 343.61 677.204 341.28C677.939 338.615 691.442 343.486 697.419 345.643C698.54 346.047 699.396 346.356 699.854 346.502C707.001 348.779 714.128 351.121 721.218 353.57C723.411 352.585 725.608 351.591 727.808 350.595Z" fill="#89C5CC"/>
<path fill-rule="evenodd" clip-rule="evenodd" d="M664.108 409.133C668.459 409.896 671.529 414.071 671.052 418.442C670.406 424.349 664.519 427.056 659.08 426.286C652.909 425.411 651.611 420.194 654.601 415.176C655.263 414.065 656.024 412.735 657.228 412.15C658.055 411.748 659.109 412.103 659.775 411.779C662.111 410.643 660.706 408.831 664.108 409.133ZM662.126 405.275C656.816 405.953 647.005 412.098 647.501 418.246C647.932 418.959 648.58 419.25 649.445 419.121C649.237 420.453 649.305 421.77 649.649 423.074C650.153 424.766 651.16 426.153 652.508 427.254C655.285 429.524 659.081 430.081 662.539 429.683C668.996 428.941 674.084 424.528 674.447 417.812C674.801 411.257 669.079 404.397 662.126 405.275Z" fill="#89C5CC"/>
<path fill-rule="evenodd" clip-rule="evenodd" d="M687.846 413.275C685.463 414.537 681.694 416.477 680.297 418.875C678.821 421.408 680.349 424.179 683.459 422.981C685.928 422.03 687.498 419.008 690.132 418.039C692.456 417.184 693.392 417.62 695.849 418.471C698.38 419.348 700.592 420.196 703.328 419.98C706.767 419.71 709.745 417.716 713.111 417.263C715.945 416.881 718.282 417.983 720.996 418.422C724.145 418.931 726.204 417.739 729.15 417.118C731.154 416.696 734.686 418.414 736.148 417.771C739.434 416.326 735.957 414.56 734.138 413.976C731.073 412.993 729.187 413.86 726.272 414.676C723.107 415.561 721.74 414.895 718.714 414.082C712.593 412.438 707.864 416.415 702.062 415.692C696.691 415.022 693.476 410.293 687.846 413.275Z" fill="#89C5CC"/>
<path fill-rule="evenodd" clip-rule="evenodd" d="M787.935 410.336C793.827 415.86 787.208 423.719 780.712 419.304C778.426 417.751 778.389 415.255 780.168 413.022C781.796 410.98 785.371 410.184 787.935 410.336ZM785.751 405.872C780.247 406.943 775.055 409.469 774.556 415.822C774.07 422.02 780.428 424.899 785.769 424.493C797.761 423.579 796.894 403.718 785.751 405.872Z" fill="#89C5CC"/>
</g>
<path opacity="0.5" fill-rule="evenodd" clip-rule="evenodd" d="M1022.08 159.818C1015.24 159.918 998.377 161.783 995.87 167.849C993.966 172.454 999.62 171.443 1002.65 169.767C1006.75 167.502 1010.35 166.145 1015.43 165.456C1034.78 162.828 1053.37 172.252 1072.53 173.443C1079.79 173.895 1088.56 174.189 1095.49 172.424C1100.42 171.167 1101.07 168.426 1095.43 168.009C1090.65 167.654 1085.35 168.772 1080.44 168.74C1060.14 168.61 1042.09 159.532 1022.08 159.818Z" fill="#C1DEE2"/>
<g opacity="0.5">
<path fill-rule="evenodd" clip-rule="evenodd" d="M453.509 447.362C445.085 447.456 436.665 447.767 428.257 448.299C420.262 448.806 411.587 448.421 403.722 449.971C401.488 450.411 398.471 452.446 401.441 454.685C403.528 456.259 411.165 454.449 413.657 454.295C422.836 453.731 432.02 453.055 441.212 452.731C449.914 452.423 458.615 452.315 467.322 452.228C468.651 452.215 470.857 451.789 472.181 452.175C474.083 452.729 473.632 452.88 473.774 455.294C474.032 459.668 473.961 464.058 473.874 468.436C473.79 472.673 473.633 476.909 473.649 481.148C473.659 484.172 472.693 490.181 474.21 492.807C476.394 496.588 478.66 492.482 478.823 489.97C479.136 485.165 478.996 480.302 478.997 475.491C478.998 470.976 479.031 466.46 478.872 461.947C478.756 458.687 479.222 452.996 477.466 450.032C475.677 447.013 471.37 447.664 468.228 447.52C463.326 447.295 458.415 447.311 453.509 447.362Z" fill="#89C5CC"/>
<path fill-rule="evenodd" clip-rule="evenodd" d="M399.91 452.81C399.919 461.294 398.937 469.722 398.662 478.196C398.536 482.093 398.28 486.371 399.266 490.196C400.261 494.058 403.421 494.895 403.785 490.583C404.522 481.853 404.342 472.8 404.915 463.999C405.118 460.892 406.437 455.198 405.206 452.288C404.122 449.725 399.905 449.234 399.91 452.81Z" fill="#89C5CC"/>
<path fill-rule="evenodd" clip-rule="evenodd" d="M478.906 490.207C464.276 492.144 448.982 491.438 434.247 491.743C427.178 491.889 420.111 491.898 413.041 491.972C410.573 491.997 404.307 491.059 402.173 492.446C398.775 494.654 402.461 496.358 404.711 496.407C418.663 496.712 432.771 496.071 446.72 495.613C452.987 495.407 459.275 495.307 465.526 494.774C469.374 494.446 473.579 494.128 477.316 493.094C478.112 492.873 479.846 492.919 480.024 491.833C480.134 491.162 479.935 490.066 478.906 490.207Z" fill="#89C5CC"/>
<path fill-rule="evenodd" clip-rule="evenodd" d="M418.07 502.54C414.004 502.564 401.751 500.675 400.067 504.64C397.822 509.928 406.58 508.694 408.935 508.633C414.285 508.496 419.63 508.481 424.981 508.484C430.231 508.486 435.481 508.452 440.73 508.327C442.251 508.291 445.791 508.922 446.666 507.09C447.331 505.699 446.805 504.601 445.579 503.864C442.628 502.091 434.963 503.119 431.509 502.959C427.036 502.754 422.548 502.54 418.07 502.54Z" fill="#89C5CC"/>
<path fill-rule="evenodd" clip-rule="evenodd" d="M467.537 503.519C465.213 503.657 460.513 502.699 458.431 503.763C456.065 504.972 456.899 506.864 458.941 507.696C460.356 508.272 466.159 507.97 467.537 507.303C468.973 506.607 470.597 503.331 467.537 503.519Z" fill="#89C5CC"/>
<path fill-rule="evenodd" clip-rule="evenodd" d="M493.013 453.643C490.531 454.324 491.284 468.414 491.22 470.647C491.045 476.767 490.357 484.464 492.39 490.358C493.687 494.115 496.178 493.605 495.753 489.65C495.381 486.178 494.741 482.746 494.464 479.252C493.839 471.345 492.987 462.911 493.578 454.997C493.83 455.457 496.184 459.722 496.738 459.403C496.571 459.503 494.023 453.377 493.013 453.643Z" fill="#89C5CC"/>
<path fill-rule="evenodd" clip-rule="evenodd" d="M520.93 448.453C515.907 448.528 510.885 448.617 505.864 448.756C501.871 448.867 495.598 448.211 491.937 449.891C487.577 451.89 489.645 456.345 493.74 456.439C497.363 456.523 501.226 455.706 504.881 455.581C514.754 455.242 524.645 455.171 534.522 455.086C543.456 455.009 552.769 455.962 561.624 454.62C562.937 466.283 559.385 477.995 560.593 489.792C560.78 491.623 560.696 494.21 563.028 494.627C565.971 495.154 566.092 492.239 566.203 490.152C566.522 484.193 566.349 478.229 566.786 472.262C567.19 466.732 567.986 461.081 567.313 455.542C566.486 448.727 563.22 449.273 557.447 448.99C545.254 448.392 533.137 448.274 520.93 448.453Z" fill="#89C5CC"/>
<path fill-rule="evenodd" clip-rule="evenodd" d="M504.098 489.866C501.538 489.931 497.288 489.142 495.648 491.596C493.942 494.15 495.966 496.377 498.447 496.901C501.384 497.521 505.213 496.671 508.261 496.662C511.435 496.652 514.61 496.688 517.784 496.7C531.392 496.753 545.058 496.959 558.657 496.397C560.556 496.318 565.946 496.955 567.26 495.133C568.427 493.518 567.611 492.069 566.074 491.246C563.554 489.895 558.378 490.409 555.575 490.302C552.113 490.17 548.646 490.127 545.183 490.073C531.511 489.862 517.768 489.528 504.098 489.866Z" fill="#89C5CC"/>
<path fill-rule="evenodd" clip-rule="evenodd" d="M515.609 501.67C510.517 501.757 505.083 501.533 500.041 502.306C495.608 502.985 495.062 507.27 499.834 507.772C504.22 508.233 509.537 507.372 513.944 507.089C515.509 506.988 517.329 507.131 518.079 505.4C518.862 503.593 517.365 501.859 515.609 501.67Z" fill="#89C5CC"/>
<path fill-rule="evenodd" clip-rule="evenodd" d="M554.108 502.12C551.39 502.188 543.451 501.019 542.104 504.124C539.863 509.292 550.611 507.329 552.673 507.253C555.272 507.157 565.4 508.675 565.402 504.538C565.404 500.481 556.597 502.059 554.108 502.12Z" fill="#89C5CC"/>
<path fill-rule="evenodd" clip-rule="evenodd" d="M399.47 527.804C399.477 537.206 398.891 546.697 399.749 556.076C400.104 559.955 400.043 567.386 402.29 570.674C403.885 573.008 406.097 572.845 406.968 570.042C407.55 568.168 406.619 564.421 406.515 562.416C406.415 560.493 406.298 558.57 406.209 556.645C405.98 551.688 405.999 546.739 406.067 541.779C406.125 537.524 407.149 531.895 406.184 527.804C405.283 523.991 399.47 523.099 399.47 527.804Z" fill="#69A1AC"/>
<path fill-rule="evenodd" clip-rule="evenodd" d="M493.967 519.532C477.654 519.941 461.304 519.576 445.006 520.383C436.968 520.781 428.961 521.656 420.963 522.527C417.034 522.956 413.107 523.398 409.185 523.881C408.001 524.027 398.166 524.408 401.865 528.148C403.48 529.782 408.62 528.076 410.654 527.835C414.593 527.37 418.539 526.965 422.482 526.548C429.987 525.754 437.5 525.002 445.037 524.585C462.786 523.601 480.609 523.896 498.375 523.241C503.181 523.064 507.973 522.937 512.781 523.126C514.043 523.175 523.321 523.647 519.293 520.22C517.388 518.6 510.207 519.436 507.827 519.387C503.207 519.292 498.585 519.416 493.967 519.532Z" fill="#69A1AC"/>
<path fill-rule="evenodd" clip-rule="evenodd" d="M516.205 535.373C516.125 531.029 516.044 526.685 515.846 522.344C515.638 517.773 521.865 517.081 523.711 520.781C525.041 523.445 524.807 527.977 524.606 531.862C524.526 533.427 524.45 534.888 524.485 536.078C524.564 538.806 524.765 541.628 524.968 544.486C525.48 551.68 526.009 559.111 524.664 565.902C524.01 569.202 521.227 570.936 519.374 569.138C519.371 569.141 519.369 569.145 519.366 569.149C518.669 570.176 516.5 570.174 514.902 570.172C514.462 570.172 514.065 570.171 513.755 570.192C509.378 570.49 505.082 570.992 500.743 571.642C492.099 572.938 483.53 573.734 474.793 573.95C468.864 574.097 462.927 574.146 456.989 574.196C445.617 574.29 434.24 574.384 422.904 575.162C419.082 575.425 415.319 575.875 411.56 576.594C411.24 576.655 410.884 576.734 410.506 576.819C407.711 577.44 403.664 578.34 403.388 574.434C403.059 569.798 413.107 569.19 418.278 568.878C419.068 568.83 419.744 568.789 420.251 568.742C435.952 567.282 451.899 567.508 467.666 567.732C468.43 567.742 469.194 567.753 469.957 567.764C471.187 567.781 472.417 567.801 473.647 567.821C480.398 567.933 487.141 568.044 493.889 567.631C496.96 567.443 500.072 567.346 503.189 567.25C508.162 567.096 513.149 566.941 518.013 566.414C517.279 563.57 517.151 560.214 517.03 557.051C516.983 555.819 516.937 554.617 516.857 553.485C516.43 547.456 516.317 541.415 516.205 535.373Z" fill="#69A1AC"/>
<path fill-rule="evenodd" clip-rule="evenodd" d="M529.408 525.693C527.204 525.992 525.366 527.879 526.35 530.271C527.589 533.283 531.28 532.106 533.718 531.915C541.468 531.308 549.56 532.521 557.217 531.606C559.308 531.356 562.341 530.217 560.464 527.407C559.053 525.296 553.911 525.666 551.725 525.464C544.25 524.772 536.873 524.957 529.408 525.693Z" fill="#C1DEE2"/>
<path fill-rule="evenodd" clip-rule="evenodd" d="M542.488 538.834C539.483 539.036 532.486 538.877 531.219 542.297C528.947 548.432 537.846 546.27 540.556 545.921C543.703 545.516 551.123 546.601 552.799 543.549C555.796 538.091 545.124 538.652 542.488 538.834Z" fill="#C1DEE2"/>
<path fill-rule="evenodd" clip-rule="evenodd" d="M534.759 552.298C533.333 553.724 533.331 556.271 534.759 557.698C536.507 559.445 540.317 559.082 542.614 559.209C545.818 559.388 555.021 561.083 556.612 557.31C558.759 552.219 550.425 552.326 547.684 552.037C544.516 551.704 537.385 549.671 534.759 552.298Z" fill="#C1DEE2"/>
<path fill-rule="evenodd" clip-rule="evenodd" d="M422.437 465.159C422.437 470.632 430.985 470.632 430.985 465.159C430.985 459.715 422.437 459.632 422.437 465.159Z" fill="#89C5CC"/>
<path fill-rule="evenodd" clip-rule="evenodd" d="M438.651 465.221C438.651 471.478 448.388 471.465 448.388 465.221C448.388 458.985 438.651 458.922 438.651 465.221Z" fill="#89C5CC"/>
<path fill-rule="evenodd" clip-rule="evenodd" d="M428.842 473.54C424.11 474.847 428.47 478.858 430.667 479.774C434.16 481.23 438.927 482.304 442.42 480.12C443.81 479.251 444.938 478.097 443.92 476.411C442.834 474.615 441.349 475.414 439.696 475.579C437.603 475.79 435.911 475.757 433.89 475.086C432.381 474.585 430.488 473.087 428.842 473.54Z" fill="#89C5CC"/>
<path fill-rule="evenodd" clip-rule="evenodd" d="M514.69 465.505C514.69 469.207 520.438 469.207 520.438 465.505C520.438 461.803 514.69 461.803 514.69 465.505Z" fill="#89C5CC"/>
<path fill-rule="evenodd" clip-rule="evenodd" d="M527.402 466.062C527.402 470.175 533.788 470.176 533.788 466.062C533.788 461.949 527.402 461.949 527.402 466.062Z" fill="#89C5CC"/>
<path fill-rule="evenodd" clip-rule="evenodd" d="M526.929 474.988C523.575 475.421 513.873 476.404 513.33 480.539C512.493 486.918 523.123 481.755 525.549 481.254C528.64 480.616 531.399 480.783 534.484 480.907C536.178 480.974 538.431 481.249 538.253 478.669C537.962 474.432 529.861 474.612 526.929 474.988Z" fill="#89C5CC"/>
<path fill-rule="evenodd" clip-rule="evenodd" d="M442.592 533.814C440.16 534.463 436.98 538.666 438.653 541.239C441.396 545.458 442.605 538.98 443.753 538.356C445.842 537.222 447.537 541.368 449.72 539.193C453.164 535.761 444.76 533.234 442.592 533.814Z" fill="#69A1AC"/>
<path fill-rule="evenodd" clip-rule="evenodd" d="M470.45 530.696C467.567 530.722 461.48 534.804 461.049 537.818C460.793 539.609 461.98 541.33 463.911 541.354C466.54 541.386 467.375 537.968 469.654 537.253C472.112 536.482 471.747 538.258 473.87 539.178C475.424 539.852 477.367 539.57 477.906 537.66C478.925 534.057 473.413 530.639 470.45 530.696Z" fill="#69A1AC"/>
<path fill-rule="evenodd" clip-rule="evenodd" d="M448.38 547.954C443.768 550.656 451.356 556.449 453.987 557.174C457.958 558.267 465.951 556.226 466.892 551.375C467.267 549.444 466.059 547.695 463.928 548.041C462.174 548.326 461.049 550.527 459.424 551.315C457.23 552.378 455.28 552.306 453.416 550.705C451.898 549.4 451.085 546.376 448.38 547.954Z" fill="#69A1AC"/>
<path fill-rule="evenodd" clip-rule="evenodd" d="M451.722 587.885C447.602 588.764 443.413 588.174 439.273 589.001C435.051 589.843 432.528 591.438 428.606 589.831C428.421 589.753 428.237 589.676 428.053 589.598C425.017 588.29 421.835 587.903 418.658 589.987C416.777 591.22 411.068 595.486 411.756 598.089C413.247 603.732 419.671 594.883 421.309 594.021C424.433 592.376 426.574 594.477 429.79 595.07C433.642 595.78 436.741 593.745 440.37 592.934C444.613 591.986 449.387 591.656 453.705 591.148C455.41 590.948 461.871 592.297 462.454 590.174C463.456 586.528 453.342 587.542 451.722 587.885Z" fill="#C1DEE2"/>
<path fill-rule="evenodd" clip-rule="evenodd" d="M481.449 599.25C481.719 599.454 481.503 599.29 481.449 599.25V599.25ZM492.989 587.665C496.516 587.307 507.802 584.787 510.119 588.432C511.629 590.806 509.233 599.568 506.949 600.702C505.122 601.607 500.869 600.606 498.865 600.535C495.136 600.404 491.4 600.346 487.675 600.113C486.426 600.035 482.407 600.265 481.428 599.159C480.272 597.854 480.323 590.895 480.051 589.169C483.294 590.219 489.598 588.009 492.989 587.665ZM500.521 584.091C496.004 584.287 491.487 584.626 487.003 585.232C484.504 585.57 481.971 586.468 479.663 586.894C478.919 587.031 477.711 586.65 476.799 587.091C474.132 588.379 476.467 597.089 477.11 599.415C478.098 602.99 480.583 603.569 484.066 603.905C488.653 604.35 493.334 604.21 497.936 604.154C502.371 604.099 508.352 605.082 510.841 600.632C512.45 597.754 514.175 591.053 512.8 587.846C510.991 583.626 504.236 583.935 500.521 584.091Z" fill="#C1DEE2"/>
<path fill-rule="evenodd" clip-rule="evenodd" d="M551.111 601.644C550.869 601.954 550.869 601.954 551.111 601.644V601.644ZM552.101 600.45C552.026 600.564 551.679 600.93 552.101 600.45V600.45ZM541.327 600.122C543.319 599.748 545.311 599.377 547.304 599.013C545.417 601.656 543.429 600.564 540.203 600.334C540.578 600.263 540.953 600.193 541.327 600.122ZM531.827 599.187C532.331 599.018 532.836 598.85 533.341 598.681C533.325 599.065 533.408 599.425 533.588 599.76C532.724 599.666 531.861 599.566 530.998 599.46C531.274 599.369 531.551 599.278 531.827 599.187ZM527.424 595.936C527.396 595.243 528.438 595.719 529.036 595.672C527.884 596.686 527.346 596.775 527.424 595.936ZM543.169 588.072C543.321 587.878 543.522 587.888 543.772 588.101C543.499 588.192 542.449 588.638 543.169 588.072ZM553.38 586.871C553.407 586.871 553.974 587.636 553.38 586.871V586.871ZM553.094 586.62C553.242 586.734 553.242 586.734 553.094 586.62V586.62ZM551.819 586.471C553.907 586.824 553.749 589.274 551.819 586.471V586.471ZM527.291 586.304C526.867 586.657 527.012 586.315 527.291 586.304V586.304ZM535.275 581.088C531.731 581.294 525.224 581.087 522.264 582.975C518.401 585.44 520.434 593.926 520.78 597.646C521.29 603.144 523.878 604.71 529.056 605.287C535.236 605.976 541.585 606.104 547.797 605.941C553.391 605.794 556.577 603.87 557.602 597.98C557.916 596.177 558.712 593.389 558.687 591.663C558.67 590.466 558.073 589.92 557.848 588.902C556.563 583.105 554.414 582.417 548.473 582.165C544.1 581.979 539.566 580.863 535.275 581.088Z" fill="#89C5CC"/>
</g>
<g opacity="0.5">
<path fill-rule="evenodd" clip-rule="evenodd" d="M723.032 447.913C732.044 448.105 742.268 453.093 740.843 463.659C739.799 471.399 733.098 477.682 725.336 478.224C716.994 478.806 708.174 472.404 707.041 463.91C705.766 454.357 714.22 447.722 723.032 447.913ZM718.613 443.612C714.959 444.157 711.468 446.076 708.251 447.794C707.023 448.451 700.798 452.452 705.681 453.446C693.916 472.419 721.603 490.043 737.17 477.712C744.161 472.174 747.841 461.675 743.322 453.457C738.649 444.957 727.566 442.267 718.613 443.612Z" fill="#89C5CC"/>
<path fill-rule="evenodd" clip-rule="evenodd" d="M716.459 459.762C716.459 463.306 721.959 463.306 721.959 459.762C721.959 456.218 716.459 456.218 716.459 459.762Z" fill="#89C5CC"/>
<path fill-rule="evenodd" clip-rule="evenodd" d="M726.657 460.329C726.657 464.171 732.621 464.171 732.621 460.329C732.621 456.488 726.657 456.488 726.657 460.329Z" fill="#89C5CC"/>
<path fill-rule="evenodd" clip-rule="evenodd" d="M719.775 467.927C718.972 470.842 728.123 472.337 728.428 468.964C728.573 467.352 720.333 465.894 719.775 467.927Z" fill="#89C5CC"/>
<path fill-rule="evenodd" clip-rule="evenodd" d="M746.599 466.126C757.129 464.862 767.985 465.446 778.565 465.749C781.213 465.826 783.861 465.9 786.509 465.944C788.192 465.972 791.828 466.78 793.298 465.992C799.315 462.765 787.511 461.205 785.84 461.057C775.316 460.191 759.075 459.882 748.52 460.29C745.398 460.412 744.723 466.351 746.599 466.126Z" fill="#89C5CC"/>
<path fill-rule="evenodd" clip-rule="evenodd" d="M793.98 518.469C794.07 507.437 794.466 496.33 795.314 485.33C795.659 480.847 796.074 476.37 796.417 471.886C796.579 469.775 797.329 466.817 796.088 464.964C794.809 463.055 792.003 462.658 790.312 464.35C788.288 466.97 788.876 471.367 788.624 474.537C788.237 479.41 787.77 484.28 787.537 489.164C787.088 498.616 786.983 508.233 787.743 517.673C788.102 522.127 788.879 526.473 789.914 530.817C790.385 532.795 794.132 541.603 793.345 542.818C792.124 544.702 783.099 543.99 781.141 544.042C776.117 544.177 771.092 544.265 766.067 544.361C761.765 544.443 757.463 544.502 753.16 544.54C751.452 544.555 741.414 544.251 743.641 546.784C718.741 548.519 693.366 545.622 668.618 544.629C667.368 544.578 665.323 544.223 663.435 544.121C663.209 543.209 663.023 542.395 662.977 541.828C662.652 537.851 662.567 533.86 662.214 529.884C661.569 522.608 660.318 515.407 659.574 508.144C658.831 500.889 658.906 493.612 658.473 486.339C658.399 485.093 658.224 474.885 655.648 472.404C656.869 472.867 658.839 472.928 659.973 472.836C669.153 472.096 678.266 470.5 687.368 469.131C689.972 468.74 695.881 469.017 698.041 467.716C699.91 466.589 700.65 462.638 697.398 462.958C688.322 463.93 679.296 465.439 670.292 466.924C667.883 467.321 665.481 467.746 663.079 468.18C661.475 468.47 657.241 468.448 655.997 469.415C654.486 470.589 654.326 471.388 654.838 471.919C654.126 471.723 653.273 472.031 652.248 473.056C650.31 475.578 652.132 481.789 652.363 484.746C652.64 488.293 652.777 491.845 652.938 495.399C653.25 502.275 653.97 509.056 655.076 515.85C656.316 523.46 657.371 531.102 658.614 538.71C658.937 540.691 659.359 542.623 659.898 544.537C656.549 546.249 658.826 548.973 661.481 549.456C661.5 549.46 661.52 549.462 661.539 549.466C662.367 551.485 663.525 553.355 664.429 550.65C664.498 550.442 664.531 550.187 664.539 549.9C671.398 550.676 678.938 550.194 685.691 550.47C700.319 551.068 715.037 551.965 729.68 551.51C735.477 551.33 741.291 550.815 747.039 550.042C750.407 549.589 753.788 549.048 757.102 548.297C757.339 548.243 757.7 548.187 758.117 548.118C758.185 548.116 758.254 548.114 758.318 548.114C763.393 548.037 768.463 547.901 773.533 547.69C777.789 547.513 782.064 547.422 786.306 547.021C788.941 546.772 794.51 546.818 796.127 544.168C797.598 541.759 795.139 535.552 794.79 532.846C794.176 528.08 793.941 523.27 793.98 518.469Z" fill="#C1DEE2"/>
<path fill-rule="evenodd" clip-rule="evenodd" d="M742.556 486.614C738.501 486.961 734.752 488.865 730.66 488.889C727.225 488.908 723.844 487.882 720.39 488.034C716.339 488.21 714.11 490.83 710.562 491.707C707.737 492.404 705.957 490.241 703.472 489.285C700.335 488.077 698.017 488.701 695.328 490.528C693.352 491.87 688.744 494.883 688.78 497.599C688.886 505.825 698.483 494.462 700.417 494.324C702.988 494.141 705.86 497.071 708.595 497.238C712.211 497.459 714.529 495.128 717.859 494.279C721.226 493.42 724.866 494.472 728.242 494.799C732.093 495.171 735.464 494.313 739.19 493.394C742.801 492.503 745.878 492.55 749.547 493.298C752.023 493.803 758.192 496.739 759.276 492.964C760.751 487.823 745.39 486.373 742.556 486.614Z" fill="#89C5CC"/>
<path fill-rule="evenodd" clip-rule="evenodd" d="M743.79 502.302C735.482 503.109 727.123 503.816 718.777 504.042C715.162 504.141 701.266 502.591 702.498 507.185C703.555 511.123 722.465 508.643 726.317 508.343C730.569 508.013 734.814 507.551 739.046 507.016C740.545 506.826 744.166 507.022 745.224 505.765C746.233 504.565 745.736 502.108 743.79 502.302Z" fill="#89C5CC"/>
<path fill-rule="evenodd" clip-rule="evenodd" d="M686.475 523.221C686.286 523.301 686.286 523.301 686.475 523.221V523.221ZM688.228 523.197C690.299 523.132 689.855 522.04 691.921 522.609C692.874 522.871 692.972 522.482 693.711 523.393C695.152 525.17 693.795 529.039 692.374 530.471C687.113 535.773 680.799 523.433 688.228 523.197ZM688.228 517.995C673.825 518.479 679.851 540.728 692.387 536.186C697.564 534.311 700.818 525.861 697.773 521.112C696.292 518.802 694.403 518.391 691.921 518.231C691.345 518.194 690.62 519.031 690.261 518.993C689.406 518.903 689.486 517.948 688.228 517.995Z" fill="#89C5CC"/>
<path fill-rule="evenodd" clip-rule="evenodd" d="M722.671 523.983C722.414 523.904 727.218 525.301 726.693 524.754C727.815 525.921 726.306 528.68 725.037 529.161C721.964 530.328 720.24 525.549 722.671 523.983ZM724.803 517.95C720.293 518.589 716.813 520.467 716.196 525.482C715.627 530.111 718.755 534.799 723.688 534.889C734.442 535.086 734.769 516.56 724.803 517.95Z" fill="#89C5CC"/>
<path fill-rule="evenodd" clip-rule="evenodd" d="M773.893 524.186C774.522 532.406 765.999 524.882 773.893 524.186V524.186ZM770.235 515.392C769.489 516.666 770.125 518.018 771.25 518.759C761.196 520.884 763.473 536.013 773.704 533.778C778.907 532.641 779.863 527.17 779.088 522.653C778.719 520.505 773.366 510.038 770.235 515.392Z" fill="#89C5CC"/>
</g>
<path opacity="0.5" fill-rule="evenodd" clip-rule="evenodd" d="M832.627 536.345C827.977 536.966 816.986 540.821 817.082 544.962C817.23 551.425 826.572 544.365 828.65 543.416C839.813 538.315 854.272 544.925 865.895 546.331C871.225 546.975 881.65 548.167 886.357 545.485C894.728 540.717 875.368 541.911 872.903 541.719C859.501 540.68 846.168 534.529 832.627 536.345Z" fill="#C1DEE2"/>
<g opacity="0.5">
<path fill-rule="evenodd" clip-rule="evenodd" d="M935.586 484.268C935.583 489.946 935.296 495.742 936.343 501.352C936.66 503.051 936.91 506.304 938.701 507.185C940.501 508.07 942.246 507.076 942.693 505.231C943.215 503.085 942.071 499.872 941.955 497.619C941.796 494.54 941.785 491.458 941.784 488.376C941.783 486.15 942.515 482.569 939.887 481.424C937.934 480.572 935.586 482.156 935.586 484.268Z" fill="#C1DEE2"/>
<path fill-rule="evenodd" clip-rule="evenodd" d="M1025.35 475.287C1006.54 477.176 987.457 477.568 968.576 478.553C959.849 479.008 949.301 478.427 941.079 481.805C939.552 482.433 934.084 485.925 938.523 487.347C939.907 487.79 941.313 486.299 942.449 485.8C944.341 484.969 946.532 484.712 948.55 484.387C965.706 481.632 983.651 482.112 1000.98 480.824C1005.43 480.494 1009.87 480.155 1014.3 479.719C1017.47 479.407 1024.12 477.125 1027.04 478.292C1032.04 480.287 1031.92 493.247 1032.02 497.704C1032.07 500.009 1029.83 508.283 1034.28 507.444C1037.84 506.773 1036.55 498.177 1036.27 495.826C1035.55 489.662 1034.3 474.38 1025.35 475.287Z" fill="#C1DEE2"/>
<path fill-rule="evenodd" clip-rule="evenodd" d="M1032.29 507.146C1015.95 508.621 999.233 507.173 982.824 507.754C974.224 508.058 965.632 508.543 957.03 508.827C953.31 508.95 949.586 508.955 945.864 508.982C944.084 508.994 935.983 510.073 940.994 513.602C943.213 515.165 950.285 513.906 952.831 513.876C956.656 513.831 960.478 513.672 964.3 513.522C973.152 513.176 981.999 512.696 990.856 512.457C999.328 512.227 1007.8 512.178 1016.28 511.949C1020.49 511.834 1024.77 511.705 1028.94 511.09C1029.89 510.951 1032.95 510.84 1033.6 509.789C1034.22 508.795 1033.79 507.001 1032.29 507.146Z" fill="#89C5CC"/>
<path fill-rule="evenodd" clip-rule="evenodd" d="M951.979 494.877C951.891 495.085 951.891 495.085 951.979 494.877V494.877ZM959.055 492.726C959.313 492.835 959.313 492.835 959.055 492.726V492.726ZM958.724 492.666C962.537 496.553 956.673 501.193 953.101 497.4C949.309 493.373 956.269 492.679 958.724 492.666ZM954.679 486.786C941.544 489.123 946.194 506.629 958.463 504.099C963.849 502.989 966.929 497.563 965.075 492.351C964.351 490.314 962.772 488.079 960.574 487.438C959.478 487.118 958.508 487.621 957.464 487.503C956.468 487.391 955.915 486.563 954.679 486.786Z" fill="#C1DEE2"/>
<path fill-rule="evenodd" clip-rule="evenodd" d="M1004.95 491.713C997.03 491.738 989.107 492.074 981.187 492.225C978.758 492.27 972.514 491.183 972.505 495.013C972.494 499.105 979.449 497.594 981.763 497.539C989.619 497.351 997.495 497.007 1005.32 496.259C1007.3 496.07 1014.14 496.396 1014.13 493.708C1014.12 490.86 1006.55 491.713 1004.95 491.713Z" fill="#C1DEE2"/>
<path fill-rule="evenodd" clip-rule="evenodd" d="M1023.87 518.421C1004.28 518.947 984.718 519.13 965.144 520.133C957.822 520.508 950.51 520.787 943.178 520.787C941.766 520.787 938.922 520.24 937.593 521.129C933.986 523.541 938.093 525.612 940.444 525.742C956.525 526.634 972.838 524.413 988.909 523.912C998.318 523.619 1007.73 523.532 1017.13 523.053C1019.7 522.923 1022.26 522.771 1024.82 522.572C1026.3 522.458 1030.19 522.771 1031.38 521.909C1036.58 518.147 1025.62 518.374 1023.87 518.421Z" fill="#89C5CC"/>
<path fill-rule="evenodd" clip-rule="evenodd" d="M933.986 528C933.802 533.079 933.783 538.07 934.447 543.121C934.708 545.108 934.829 547.364 937.158 547.869C939.274 548.327 940.347 546.727 940.785 544.953C941.855 540.62 940.914 534.384 940.901 529.883C940.896 527.657 940.893 525.166 938.143 524.663C936.045 524.279 934.066 525.795 933.986 528Z" fill="#89C5CC"/>
<path fill-rule="evenodd" clip-rule="evenodd" d="M1044.63 540.245C1012.92 541.916 981.252 543.375 949.518 544.716C947.043 544.821 927.817 544.611 934.538 551.316C936.614 553.387 941.963 551.984 944.648 551.853C948.682 551.654 952.719 551.503 956.754 551.298C972.75 550.483 988.789 550.264 1004.77 549.35C1013.57 548.847 1022.35 548.06 1031.1 547.036C1035.26 546.549 1040.43 546.599 1044.32 544.968C1046.33 544.129 1048.49 540.04 1044.63 540.245Z" fill="#89C5CC"/>
<path fill-rule="evenodd" clip-rule="evenodd" d="M1026.4 514.48C1023.99 516.882 1025.23 521.62 1025.41 524.589C1025.66 528.674 1025.96 532.762 1026.47 536.825C1026.81 539.464 1026.63 543.571 1028.04 545.851C1029.69 548.521 1033.32 548.225 1034.81 545.646C1036.13 543.365 1035.46 538.566 1035.42 536.038C1035.38 532.542 1035.16 529.041 1034.95 525.552C1034.78 522.637 1035.44 517.964 1033.84 515.469C1032.21 512.933 1028.66 512.232 1026.4 514.48Z" fill="#89C5CC"/>
<path fill-rule="evenodd" clip-rule="evenodd" d="M953.917 533.119C953.634 533.337 953.634 533.337 953.917 533.119V533.119ZM959.549 532.413C964.805 533.47 956.307 539.606 953.621 535.395C953.202 534.737 952.983 533.928 953.657 533.356C954.271 532.834 954.658 533.758 955.238 533.51C956.238 533.082 958.482 532.373 959.549 532.413ZM958.824 527.375C955.236 527.659 950.303 527.881 948.527 531.478C946.141 536.309 950.221 541.04 954.942 541.775C959.485 542.483 966.267 539.967 966.631 534.669C966.924 530.397 962.861 527.048 958.824 527.375Z" fill="#89C5CC"/>
<path fill-rule="evenodd" clip-rule="evenodd" d="M988.781 529.93C985.067 529.99 977.765 528.892 974.529 530.702C971.327 532.494 972.755 535.684 975.676 536.447C977.607 536.951 980.763 536.138 982.773 536.056C985.418 535.948 988.064 535.925 990.711 535.888C995.161 535.828 999.609 535.879 1004.06 535.879C1008.61 535.879 1013.23 536.003 1017.77 535.669C1023.51 535.246 1023.35 530.947 1017.74 530.41C1008.2 529.497 998.351 529.78 988.781 529.93Z" fill="#89C5CC"/>
<path fill-rule="evenodd" clip-rule="evenodd" d="M979.293 578.08C979.293 580.122 981.105 578.08 981.092 578.08C981.105 578.08 979.293 576.037 979.293 578.08Z" fill="#89C5CC"/>
<path fill-rule="evenodd" clip-rule="evenodd" d="M938.297 561.637C938.414 567.574 938.491 573.517 938.744 579.45C938.825 581.326 938.287 584.989 940.561 585.945C943.092 587.01 943.879 584.356 944.171 582.558C945.094 576.862 944.189 570.358 944.1 564.594C944.07 562.659 944.489 559.965 942.291 559C940.498 558.212 938.261 559.674 938.297 561.637Z" fill="#89C5CC"/>
<path fill-rule="evenodd" clip-rule="evenodd" d="M1035.94 561.73C1036.09 562.084 1036.09 562.084 1035.94 561.73V561.73ZM1036.15 561.669C1036.27 561.72 1036.76 561.927 1036.15 561.669V561.669ZM988.183 556.871C979.069 557.014 969.948 557.122 960.839 557.512C956.952 557.679 953.019 557.813 949.145 558.18C946.401 558.439 939.585 558.547 937.805 560.79C934.132 565.418 941.92 564.156 943.598 563.78C946.651 563.096 949.767 562.877 952.886 562.712C959.653 562.355 966.423 562.164 973.199 562.028C991.574 561.658 1009.96 561.714 1028.34 561.631C1030.12 561.624 1033.33 560.908 1034.98 561.628C1036.62 562.349 1036.53 564.123 1036.7 566.182C1036.93 568.922 1035.12 574.143 1036.5 576.448C1038.64 580.023 1041.74 576.987 1042.22 574.381C1042.87 570.78 1041.83 566.456 1040.82 563.013C1039.38 558.157 1037.39 557.964 1032.69 557.584C1027.2 557.141 1021.73 556.872 1016.22 556.821C1006.88 556.735 997.528 556.726 988.183 556.871Z" fill="#89C5CC"/>
<path fill-rule="evenodd" clip-rule="evenodd" d="M1024.23 581.414C1004.46 583.71 984.132 582.357 964.257 582.438C959.424 582.458 954.587 582.497 949.758 582.731C947.208 582.854 941.163 582.151 939.416 584.119C935.733 588.266 942.367 588.869 944.789 588.698C949.686 588.349 954.594 588.191 959.504 588.153C976.796 588.019 994.187 588.826 1011.47 587.973C1018.7 587.615 1025.78 586.377 1032.89 584.993C1034.46 584.687 1045.24 582.638 1039.09 580.183C1035.46 578.732 1028.05 580.969 1024.23 581.414Z" fill="#89C5CC"/>
<path fill-rule="evenodd" clip-rule="evenodd" d="M966.512 573.822C966.375 573.999 966.375 573.999 966.512 573.822V573.822ZM966.38 573.791C966.333 573.918 966.188 574.232 966.38 573.791V573.791ZM965.133 572.183C965.162 572.22 965.279 572.371 965.133 572.183V572.183ZM965.085 572.171C965.561 572.739 965.881 573.373 966.046 574.072C961.95 575.182 960.372 571.868 965.085 572.171ZM964.826 572.016C964.827 572.017 965.403 572.259 964.826 572.016V572.016ZM958.097 567.079C955.446 570.38 953.258 574.227 956.563 577.998C959.518 581.37 965.463 581.805 969.214 579.554C973.077 577.235 972.744 572.352 970.049 569.165C968.313 567.113 966.907 567.17 964.389 566.835C962.675 566.607 959.551 565.274 958.097 567.079Z" fill="#89C5CC"/>
<path fill-rule="evenodd" clip-rule="evenodd" d="M985.5 573.189C985.5 577.585 1004.48 575.693 1007.86 575.688C1010.69 575.684 1027.79 577.244 1026.56 572.72C1025.55 569.003 1008.71 570.851 1005.12 570.845C1002.02 570.841 985.5 568.712 985.5 573.189Z" fill="#89C5CC"/>
</g>
<g opacity="0.5">
<path fill-rule="evenodd" clip-rule="evenodd" d="M737.7 614.376C747.206 615.756 757.094 620.227 757.011 631.292C756.941 640.595 749.139 650.496 739.119 649.94C730.103 649.441 721.612 639.58 720.483 631.13C719.898 626.752 720.993 622.039 723.568 618.437C726.942 613.719 732.296 613.726 737.7 614.376ZM733.21 608.362C726.334 608.399 721.304 610.886 717.049 616.136C715.523 618.018 713.748 620.044 712.586 622.177C711.501 624.169 711.691 629.234 715.415 626.859C714.498 636.665 720.229 646.182 728.467 651.207C737.422 656.669 747.544 655.604 754.997 647.948C761.819 640.94 764.22 629.103 759.229 620.436C754.241 611.774 742.683 608.269 733.21 608.362Z" fill="#89C5CC"/>
<path fill-rule="evenodd" clip-rule="evenodd" d="M753.826 605.734C749.424 608.96 745.405 613.208 742.067 617.517C738.804 621.728 736.647 626.987 732.727 630.66C730.748 628.504 728.429 622.681 724.48 624.991C721.203 626.908 723.313 630.205 724.909 632.369C729.03 637.958 733.606 640.208 738.891 634.685C743.691 629.67 746.417 622.98 750.905 617.677C752.873 615.349 755.915 613.04 757.482 610.47C758.903 608.142 757.146 603.294 753.826 605.734Z" fill="#89C5CC"/>
</g>
<g opacity="0.5">
<path fill-rule="evenodd" clip-rule="evenodd" d="M920.175 255.878C920.182 256.318 920.188 256.731 920.197 257.112C920.403 265.416 920.284 274.146 919.609 282.431C919.376 285.292 917.295 288.917 914.921 284.974C913.877 283.24 914.024 279.68 914.131 277.061C914.16 276.358 914.186 275.724 914.186 275.21C914.184 272.288 914.337 269.336 914.491 266.375C914.792 260.588 915.095 254.77 914.238 249.086C914.221 248.971 914.204 248.861 914.189 248.754C913.816 246.255 913.791 246.082 911.042 246.139C909.896 246.163 908.75 246.194 907.605 246.225C906.478 246.255 905.351 246.286 904.224 246.309C903.104 246.333 901.985 246.354 900.866 246.376C897.356 246.443 893.846 246.511 890.337 246.639C889.752 246.661 888.659 246.798 887.281 246.971C884.524 247.316 880.624 247.806 877.342 247.803C877.343 247.817 877.344 247.831 877.345 247.845C877.347 247.871 877.349 247.896 877.349 247.922C877.386 249.734 876.919 251.756 876.45 253.788C876.058 255.49 875.664 257.199 875.563 258.795C875.322 262.594 875.319 266.433 875.317 270.273C875.313 274.948 875.31 279.623 874.877 284.225C874.856 284.45 874.843 284.687 874.83 284.927C874.829 284.959 874.827 284.991 874.825 285.023C874.974 285 875.118 284.984 875.257 284.975C877.623 284.825 880.008 284.812 882.39 284.798C883.704 284.791 885.016 284.784 886.323 284.753C888.671 284.699 891.048 284.702 893.434 284.704C898.701 284.71 904.015 284.716 909.167 284.109C910.689 283.912 911.221 285.863 910.538 286.875C909.927 287.781 908.244 287.928 907.012 288.035C906.699 288.063 906.415 288.087 906.185 288.121C902.862 288.613 899.495 288.785 896.142 288.934C892.621 289.09 889.096 289.206 885.573 289.304C884.734 289.328 883.615 289.441 882.374 289.566C879.097 289.897 874.972 290.314 872.925 289.388C870.724 288.392 870.776 287.287 871.674 286.431C871.28 285.564 871.218 284.299 871.169 283.309C871.151 282.931 871.134 282.593 871.102 282.333C870.614 278.392 870.319 274.501 870.312 270.526C870.298 262.74 870.314 254.653 872.468 247.116C871.605 246.738 871.085 246.181 871.087 245.379C871.097 241.335 883.682 241.541 889.665 241.639C890.735 241.656 891.593 241.67 892.131 241.656C896.489 241.542 900.848 241.527 905.207 241.551C906.128 241.556 907.153 241.495 908.215 241.433C910.474 241.3 912.901 241.158 914.852 241.611C919.978 242.801 920.101 250.965 920.175 255.878Z" fill="#89C5CC"/>
<path fill-rule="evenodd" clip-rule="evenodd" d="M952.235 242.497C956.994 242.245 961.756 242.188 966.521 242.17C971.566 242.145 976.618 242.235 981.661 242.39L981.778 242.394C984.012 242.461 996.432 242.834 990.726 245.929C990.394 246.11 990.019 246.26 989.61 246.386C989.852 247.819 989.881 249.298 989.842 250.011C989.695 252.714 989.598 255.421 989.501 258.127C989.435 259.961 989.369 261.795 989.287 263.628C989.063 268.692 988.849 273.757 988.675 278.824C988.653 279.446 988.686 280.259 988.723 281.166C988.844 284.163 989.007 288.18 987.379 289.665C985.95 290.968 984.974 290.707 984.316 289.821C980.228 291.009 971.832 290.623 967.611 290.429C966.593 290.382 965.819 290.346 965.405 290.346C964.665 290.347 963.289 290.439 961.553 290.556C954.324 291.041 940.829 291.948 940.802 288.384C940.799 288.041 940.91 287.734 941.12 287.458C940.547 286.874 940.032 286.016 939.701 284.945C938.513 281.101 938.401 276.954 938.313 272.968C938.188 267.34 938.187 261.705 938.186 256.072C938.185 253.178 938.184 250.285 938.167 247.394C937.394 246.356 937.853 245.169 938.817 244.341C940.87 242.579 945.966 242.558 949.652 242.542C950.644 242.538 951.534 242.534 952.235 242.497ZM944.491 285.895C949.078 284.916 956.807 285.231 960.947 285.4C962.032 285.444 962.87 285.478 963.342 285.476C967.571 285.46 971.801 285.519 976.027 285.688C976.465 285.705 977.113 285.689 977.877 285.669C979.412 285.631 981.412 285.58 983.111 285.769C983.088 285.538 983.073 285.328 983.064 285.146C982.873 281.384 983.011 277.59 983.147 273.817V273.817C983.176 273.015 983.205 272.214 983.231 271.415C983.322 268.594 983.442 265.774 983.563 262.955L983.563 262.955L983.563 262.953C983.639 261.178 983.714 259.403 983.783 257.628C983.813 256.849 983.768 255.79 983.718 254.6V254.6C983.616 252.178 983.49 249.208 983.924 246.926C982.359 246.897 980.756 246.786 979.285 246.684C977.869 246.586 976.575 246.497 975.558 246.496C974.268 246.496 972.979 246.492 971.689 246.488H971.689H971.689H971.689C968.115 246.477 964.543 246.466 960.969 246.537C960.631 246.544 960.292 246.55 959.952 246.557L959.952 246.557L959.952 246.557C955.032 246.652 950.07 246.748 945.191 247.396C944.905 247.434 944.562 247.507 944.181 247.596C944.716 249.832 944.454 252.983 944.225 255.742C944.113 257.082 944.009 258.33 944.008 259.336C944.001 265.592 944.166 271.823 944.331 278.048L944.331 278.049L944.331 278.049C944.394 280.404 944.456 282.757 944.509 285.111C944.516 285.392 944.509 285.653 944.491 285.895Z" fill="#89C5CC"/>
<path fill-rule="evenodd" clip-rule="evenodd" d="M892.284 289.123C889.157 290.95 890.843 298.259 891.927 300.786C893.708 304.943 897.322 308.195 901.222 310.352C909.104 314.712 920.466 313.554 926.427 321.114C926.489 321.192 928.549 323.232 929.018 320.59C929.403 318.422 925.557 315.111 924.066 314.025C919.827 310.934 914.391 309.938 909.488 308.394C904.259 306.748 898.521 303.713 896.328 298.322C895.552 296.413 897.032 286.337 892.284 289.123Z" fill="#C1DEE2"/>
<path fill-rule="evenodd" clip-rule="evenodd" d="M963.779 292.637C960.913 293.427 962.809 297.371 962.804 299.345C962.799 301.809 962.011 304.387 960.493 306.353C956.643 311.338 949.104 312.085 943.452 313.515C939.348 314.553 929.529 316.78 929.145 322.331C928.716 328.529 937.384 320.986 938.117 320.677C946.219 317.705 956.701 317.131 962.955 310.589C965.536 307.888 967.062 304.284 967.305 300.564C967.441 298.469 967.465 291.63 963.779 292.637Z" fill="#C1DEE2"/>
<path fill-rule="evenodd" clip-rule="evenodd" d="M904.561 347.616C904.494 336.148 915.469 329.211 925.393 326.601C937.322 323.458 948.434 331.817 949.84 343.84C951.324 356.529 941.76 366.744 929.149 367.304C918.054 367.796 904.632 359.853 904.561 347.616ZM931.207 332.115C931.852 332.992 932.435 334.392 931.135 335.154C929.884 335.883 929.26 335.007 928.631 334.125C928.234 333.568 927.835 333.009 927.276 332.851C925.826 332.443 923.496 333.968 922.288 334.857C921.798 335.218 921.1 335.995 920.284 336.904C917.688 339.795 913.897 344.017 911.802 340.384C903.446 354.813 924.278 365.612 936.124 360.151C949.134 354.154 946.602 332.229 931.207 332.115Z" fill="#89C5CC"/>
<path fill-rule="evenodd" clip-rule="evenodd" d="M920.289 343.777C920.289 346.409 924.446 346.409 924.446 343.777C924.446 341.174 920.289 341.063 920.289 343.777Z" fill="#89C5CC"/>
<path fill-rule="evenodd" clip-rule="evenodd" d="M927.603 343.283C927.603 346.507 932.697 346.507 932.697 343.283C932.697 340.095 927.603 339.959 927.603 343.283Z" fill="#89C5CC"/>
<path fill-rule="evenodd" clip-rule="evenodd" d="M922.369 350.796C918.203 353.247 930.117 358.116 930.587 353.14C930.79 350.993 928.711 351.572 927.325 351.415C925.999 351.263 923.627 350.064 922.369 350.796Z" fill="#89C5CC"/>
<path fill-rule="evenodd" clip-rule="evenodd" d="M920.562 368.181C920.743 374.44 920.656 380.696 921.843 386.867C922.069 388.039 922.225 392.291 923.152 393.162C925.431 395.304 925.468 391.199 925.557 389.625C925.873 383.99 925.281 378.179 925.151 372.532C925.122 371.316 925.444 368.799 924.871 367.622C923.96 365.755 920.473 365.2 920.562 368.181Z" fill="#C1DEE2"/>
<path fill-rule="evenodd" clip-rule="evenodd" d="M916.106 363.106C906.973 373.357 894.396 372.602 881.726 373.5C875.031 373.974 868.262 374.948 862.876 379.278C860.37 381.293 858.21 383.816 856.758 386.691C856.124 387.948 853.114 395.201 857.634 393.481C859.237 392.87 860.815 388.074 861.852 386.655C863.827 383.953 866.354 381.722 869.385 380.272C875.232 377.475 882.214 377.523 888.554 377.168C895.181 376.797 902.294 376.45 908.386 373.568C911.252 372.212 913.94 370.522 916.246 368.343C917.071 367.564 918.838 366.241 918.969 365.05C919.12 363.689 917.812 361.197 916.106 363.106Z" fill="#C1DEE2"/>
<path fill-rule="evenodd" clip-rule="evenodd" d="M870 394.569C861.421 394.856 852.852 395.203 844.285 395.746C842.53 395.857 836.676 395.502 838.167 399.1C839.362 401.983 846.501 400.076 848.862 399.936C857.789 399.406 866.753 399.222 875.662 398.419C877.663 398.239 886.709 398.31 882.973 394.764C881.196 393.076 872.455 394.486 870 394.569Z" fill="#89C5CC"/>
<path fill-rule="evenodd" clip-rule="evenodd" d="M832.719 398.707C830.015 402.259 831.258 410.891 831.462 415.161C831.66 419.298 830.856 426.863 836.257 427.505C834.542 427.28 837.559 427.609 838.05 427.635C839.146 427.694 840.248 427.713 841.346 427.725C843.883 427.753 846.421 427.719 848.957 427.668C854.702 427.554 860.462 427.386 866.2 427.069C868.612 426.935 881.696 427.047 882.214 424.541C882.876 421.339 870.331 423.151 868.085 423.253C862.616 423.504 857.138 423.557 851.664 423.628C848.951 423.664 846.235 423.691 843.522 423.638C842.401 423.616 837.965 424.076 837.284 423.328C836.703 422.692 837.156 416.842 837.144 415.947C837.104 413.03 837.107 410.107 837.211 407.191C837.281 405.228 838.342 401.493 837.477 399.649C836.636 397.856 834.185 397.244 832.719 398.707Z" fill="#89C5CC"/>
<path fill-rule="evenodd" clip-rule="evenodd" d="M876.895 398.873C877.052 405.371 877.1 411.999 878.635 418.354C879.146 420.468 879.861 424.829 881.986 425.924C884.215 427.073 886.141 425.433 886.286 423.223C886.47 420.446 884.982 416.799 884.677 413.949C884.321 410.624 884.114 407.296 883.992 403.954C883.9 401.441 884.664 397.673 882.268 396.053C880.116 394.597 876.825 396.063 876.895 398.873Z" fill="#89C5CC"/>
<path fill-rule="evenodd" clip-rule="evenodd" d="M893.968 397.287C891.3 399.945 892.492 408.36 892.826 411.775C893.07 414.276 895.808 426.581 899.91 420.164C901.725 417.326 899.419 409.821 899.436 406.511C899.446 404.403 900.192 401.738 899.832 399.713C899.356 397.037 896.388 394.87 893.968 397.287Z" fill="#89C5CC"/>
<path fill-rule="evenodd" clip-rule="evenodd" d="M912.443 395.093C920.457 394.266 928.481 393.646 936.539 393.569C936.926 393.566 937.333 393.561 937.756 393.556C943.279 393.486 951.579 393.38 955.296 397.528C957.321 399.787 958.238 403.28 959.038 406.325C959.187 406.892 959.332 407.445 959.479 407.971C959.605 408.42 959.769 408.932 959.946 409.486C960.781 412.1 961.91 415.637 960.765 417.826C960.137 419.027 959.126 420.051 957.591 419.626C957.233 419.526 956.952 419.399 956.731 419.249C957.319 419.885 957.58 420.792 957.198 421.678C956.46 423.392 954.128 423.429 952.291 423.457C951.846 423.464 951.429 423.471 951.072 423.501C944.953 424.011 938.806 424.351 932.665 424.405C929.742 424.43 926.818 424.406 923.894 424.383C920.884 424.358 917.875 424.333 914.865 424.363C912.681 424.384 910.456 424.592 908.231 424.8C905.421 425.062 902.611 425.324 899.878 425.212C897.834 425.128 895.651 424.459 896.169 421.817C896.592 419.66 898.622 419.472 900.441 419.303C900.599 419.289 900.756 419.274 900.91 419.258C906.702 418.669 912.498 418.46 918.32 418.481C930.551 418.523 942.772 418.46 955.003 418.396C955.506 418.438 955.979 418.63 956.369 418.922C955.929 418.388 955.937 417.676 955.946 416.919C955.951 416.576 955.955 416.223 955.918 415.874C955.843 415.171 955.774 414.471 955.706 413.772C955.48 411.463 955.255 409.171 954.815 406.849C954.748 406.498 954.684 406.112 954.617 405.704C954.216 403.293 953.686 400.098 951.769 398.796C949.841 397.487 946.061 397.55 943.115 397.599C942.319 397.612 941.585 397.624 940.964 397.608C933.103 397.405 925.196 397.964 917.371 398.675C916.77 398.73 916.168 398.782 915.565 398.835C912.588 399.094 909.595 399.355 906.661 399.887C906.124 399.985 905.304 400.271 904.363 400.6C901.859 401.473 898.503 402.644 897.362 401.354C893.584 397.081 910.188 395.326 912.443 395.093Z" fill="#89C5CC"/>
<path fill-rule="evenodd" clip-rule="evenodd" d="M997.707 385.363C998.056 385.811 998.056 385.811 997.707 385.363V385.363ZM943.473 358.887C938.605 361.748 947.614 370.143 949.909 371.441C955.073 374.363 962.17 374.804 967.936 375.625C975.234 376.666 983.176 377.049 990.19 379.44C993.178 380.459 995.077 382.049 997.034 384.493C998.025 385.732 1000.41 391.069 1002.59 389.805C1006.96 387.261 995.169 376.583 992.57 375.435C986.662 372.825 979.678 372.094 973.36 371.081C967.486 370.138 961.486 369.437 955.757 367.775C952.607 366.862 950.368 365.388 948.552 362.567C947.42 360.809 946.492 357.121 943.473 358.887Z" fill="#C1DEE2"/>
<path fill-rule="evenodd" clip-rule="evenodd" d="M1018.09 391.681C1012.48 391.806 1006.88 392.238 1001.28 392.669C998.136 392.911 994.995 393.153 991.853 393.341C990.87 393.4 989.886 393.453 988.902 393.506L988.902 393.506L988.902 393.506C986.133 393.655 983.361 393.804 980.606 394.083C980.188 394.125 979.703 394.165 979.174 394.208C976.834 394.4 973.644 394.662 971.605 395.516C969.736 394.102 966.851 395.304 966.806 397.824C966.729 402.414 966.771 406.923 967.331 411.485C967.461 412.544 968.13 417.905 969.586 420.696C969.068 423.332 971.315 424.07 973.406 424.272C981.506 425.054 989.999 424.447 998.378 423.849C1002.64 423.544 1006.87 423.242 1011.01 423.125C1012.38 423.086 1013.77 423.071 1015.17 423.055C1019.75 423.004 1024.41 422.952 1028.83 422.087C1029.01 422.052 1029.2 422.018 1029.4 421.982C1031.15 421.669 1033.57 421.236 1033.75 419.31C1033.86 418.154 1033.21 417.096 1032.12 416.947C1032.19 415.984 1032.07 414.933 1031.98 414.161L1031.98 414.161C1031.96 413.981 1031.94 413.816 1031.93 413.671C1031.66 410.993 1030.99 408.332 1030.34 405.705L1030.34 405.705L1030.34 405.705C1030.19 405.114 1030.04 404.525 1029.9 403.939C1029.74 403.289 1029.59 402.515 1029.44 401.682C1028.88 398.739 1028.18 395.042 1026.32 393.325C1024.37 391.525 1021.19 391.604 1018.65 391.668C1018.46 391.673 1018.27 391.678 1018.09 391.681ZM1027.97 417.235C1027.3 415.493 1027.11 413.138 1026.92 410.899V410.899C1026.8 409.494 1026.69 408.134 1026.47 407.001C1026.3 406.151 1026.17 405.255 1026.03 404.344L1026.03 404.344C1025.69 402.131 1025.34 399.832 1024.51 397.893C1023.39 395.296 1022.4 395.395 1020.06 395.63C1019.63 395.674 1019.14 395.722 1018.61 395.759C1016.22 395.921 1013.83 396.127 1011.45 396.334L1011.45 396.334C1010.31 396.433 1009.16 396.532 1008.02 396.626C1003.12 397.028 998.223 397.338 993.324 397.647L993.324 397.647C990.462 397.828 987.599 398.008 984.737 398.208C982.491 398.364 980.298 398.791 978.115 399.216C976.386 399.553 974.662 399.889 972.922 400.088C972.897 400.683 972.847 401.28 972.799 401.849C972.734 402.624 972.674 403.346 972.687 403.937C972.744 406.559 972.975 409.164 973.207 411.774C973.243 412.175 973.278 412.576 973.313 412.978C973.355 413.459 973.459 414.077 973.574 414.763C973.751 415.824 973.956 417.046 974.001 418.171C974.213 418.17 974.424 418.171 974.631 418.171C974.899 418.172 975.162 418.173 975.415 418.169C981.583 418.061 987.747 417.874 993.912 417.637C994.699 417.607 995.486 417.576 996.273 417.546C1001.77 417.332 1007.27 417.117 1012.78 417.054C1014.96 417.029 1017.18 417.098 1019.4 417.167C1022.26 417.255 1025.13 417.344 1027.97 417.235Z" fill="#89C5CC"/>
</g>
<path fill-rule="evenodd" clip-rule="evenodd" d="M534.181 492.584C541.455 496.971 548.602 499.091 551.957 498.226C560.37 496.056 561.144 465.257 554.634 453.115C548.125 440.974 514.661 435.681 512.974 459.738C512.388 468.088 515.892 475.539 521.068 481.619L511.787 524.909H538.747L534.181 492.584Z" fill="#B28B67"/>
<path fill-rule="evenodd" clip-rule="evenodd" d="M543.985 439.891C540.301 438.767 534.954 438.386 532.704 438.644C533.984 435.576 534.492 432.157 534.078 428.829C533.675 425.595 532.231 422.841 530.896 419.955C530.28 418.625 529.582 417.303 528.542 416.285C527.482 415.249 526.141 414.565 524.735 414.238C523.295 413.904 521.79 413.932 520.348 414.235C519.711 414.369 519.138 414.661 518.513 414.823C517.873 414.989 517.562 414.588 517.097 414.185C515.977 413.214 514.334 412.734 512.917 412.562C511.327 412.37 509.676 412.61 508.16 413.133C506.684 413.642 505.266 414.469 504.198 415.674C503.723 416.21 503.292 416.821 503.011 417.495C502.896 417.771 502.877 417.935 502.602 418.036C502.347 418.13 502.048 418.133 501.785 418.222C499.24 419.085 497.063 421.053 495.879 423.58C495.187 425.054 494.86 427.649 494.949 430.558C495.039 433.468 497.664 441.058 500.119 443.827C502.311 446.298 505.532 447.929 508.64 448.643C506.577 451.003 505.203 453.952 504.188 456.952C503.085 460.21 502.402 463.595 502.15 467.045C501.91 470.322 501.888 473.788 502.656 476.995C503.374 479.994 504.91 482.455 507.474 484.016C508.649 484.731 509.912 485.268 511.183 485.759C512.436 486.243 513.692 486.713 515.004 486.985C517.488 487.498 520.349 487.41 522.262 485.432C522.951 484.719 523.709 483.823 524.212 482.952C524.393 482.639 524.502 482.434 524.283 482.127C524.019 481.761 523.594 481.48 523.255 481.193C521.327 479.557 520.134 477.373 519.833 474.778C519.527 472.145 520.234 468.747 522.792 467.598C525.95 466.179 529.428 467.807 532.235 469.325C533.427 465.112 535.877 461.319 539.717 459.386C543.965 457.248 548.84 456.998 553.205 455.164C554.343 454.686 555.502 454.143 556.339 453.169C556.689 452.762 557.1 452.234 557.24 451.696C557.423 450.989 556.967 450.396 556.615 449.844C554.749 446.921 547.669 441.015 543.985 439.891Z" fill="#191847"/>
<path fill-rule="evenodd" clip-rule="evenodd" d="M509.54 814.932C557.311 814.932 596.037 777.941 596.037 732.309C596.037 686.678 557.311 649.686 509.54 649.686C461.769 649.686 423.043 686.678 423.043 732.309C423.043 777.941 461.769 814.932 509.54 814.932Z" fill="#C5CFD6"/>
<path fill-rule="evenodd" clip-rule="evenodd" d="M644.015 727.903C648.194 742.548 658.602 770.306 672.995 802.184L686.672 798.191C674.707 724.837 664.749 676.273 659.045 661.492C655.276 651.726 626.764 652.87 630.044 672.52C631.419 680.761 636.862 702.826 644.015 727.903ZM587.8 675.947C565.495 680.571 519.25 696.918 506.045 702.142C497.745 705.425 503.096 716.558 510.176 715.584C511.375 715.419 515.617 714.944 521.946 714.236C542.276 711.96 584.143 707.273 615.896 702.699C632.615 700.291 623.621 668.952 606.261 672.268C600.421 673.384 594.209 674.618 587.8 675.947Z" fill="#B28B67"/>
<path fill-rule="evenodd" clip-rule="evenodd" d="M659.919 653.214C657.639 645.767 553.982 619.335 553.982 619.335H545.487V627.256L616.916 663.644C616.821 664.818 616.879 666.059 617.11 667.368C616.594 694.343 628.131 714.495 639.554 734.447C647.023 747.494 654.444 760.456 658.413 775.185L684.656 771.267C683.891 769.31 682.683 760.489 681.03 748.428C676.862 718.016 669.873 667.007 660.067 653.512C660.032 653.465 659.998 653.418 659.962 653.371C659.95 653.319 659.935 653.266 659.919 653.214Z" fill="#1F28CF"/>
<path fill-rule="evenodd" clip-rule="evenodd" d="M551.421 685.254C544.886 683.945 538.867 682.776 533.717 681.872C500.451 676.034 490.751 658.214 496.486 619.335H557.778C567.79 622.213 619.822 644.049 646.819 655.662C664.687 663.349 659.054 691.059 648.935 698.27C648.881 698.713 648.698 699.013 648.374 699.148C610.011 715.059 577.297 713.872 556.29 713.109C547.491 712.79 540.746 712.545 536.5 713.662L529.847 692.66L551.421 685.254Z" fill="#2B44FF"/>
<path fill-rule="evenodd" clip-rule="evenodd" d="M513.043 700.783C513.004 699.612 512.017 698.678 510.853 698.797C508.471 699.041 504.744 699.543 502.965 700.411C500.234 701.744 495.438 705.212 495.438 705.212C496.983 708.382 523.213 762.198 523.213 762.198C523.213 762.198 531.634 760.837 529.886 755.766C528.139 750.695 527.067 747.299 527.067 747.299L525.953 714.926C525.934 714.363 525.454 713.927 524.892 713.962L519.808 714.282C519.808 714.282 515.583 710.86 514.233 708.09C513.377 706.334 513.118 702.992 513.043 700.783Z" fill="#E4E4E4"/>
<path fill-rule="evenodd" clip-rule="evenodd" d="M669.314 794.909C668.245 794.431 666.971 794.908 666.568 796.008C665.743 798.258 664.56 801.829 664.56 803.81C664.56 806.85 665.572 812.684 665.572 812.684C669.097 812.684 728.93 812.684 728.93 812.684C728.93 812.684 731.4 804.513 726.079 803.862C720.758 803.211 717.239 802.686 717.239 802.686L687.675 789.497C687.16 789.267 686.558 789.508 686.343 790.029L684.402 794.741C684.402 794.741 679.476 797.041 676.396 797.041C674.444 797.041 671.332 795.81 669.314 794.909Z" fill="#E4E4E4"/>
<path fill-rule="evenodd" clip-rule="evenodd" d="M640.61 630.166L604.778 603.835L596.857 623.429L632.34 638.154C642.375 649.95 647.987 654.868 649.175 652.907C650.176 651.253 649.393 649.705 648.672 648.279C648.111 647.169 647.586 646.132 647.972 645.177C648.854 642.997 655.595 643.227 661.982 643.718C668.37 644.21 666.509 641.365 664.968 639.961C658.448 636.055 650.329 632.79 640.61 630.166ZM452.697 676.562C455.989 669.879 467.199 604.744 467.199 604.744L490.674 604.836C490.674 604.836 468.932 675.072 467.199 679.369C464.948 684.952 468.772 693.063 471.365 698.563C471.766 699.414 472.138 700.202 472.453 700.909C468.855 702.52 467.127 700.573 465.305 698.52C463.247 696.201 461.069 693.748 455.943 696.134C453.963 697.056 452.089 698.146 450.258 699.211C443.934 702.89 438.124 706.27 430.22 701.389C428.967 700.616 427.594 697.703 430.912 695.426C439.177 689.755 451.088 679.829 452.697 676.562Z" fill="#B28B67"/>
<path fill-rule="evenodd" clip-rule="evenodd" d="M533.911 506.172L543.624 504.505C579.665 535.66 594.468 595.513 638.644 627.22L628.011 640.409C551.373 630.914 532.378 557.907 533.911 506.172Z" fill="#E87613"/>
<path fill-rule="evenodd" clip-rule="evenodd" d="M491.567 628.328C491.567 628.328 549.989 628.328 577.515 628.328C581.442 628.328 580.702 622.653 580.134 619.789C573.582 586.74 548.004 551.114 548.004 504.068L523.213 500.178C502.707 533.18 495.616 573.813 491.567 628.328Z" fill="#DDE3E9"/>
<path fill-rule="evenodd" clip-rule="evenodd" d="M481.902 651.934C478.04 661.218 474.252 669.319 470.683 675.541H452.25C450.267 611.375 474.543 562.001 494.86 532.23C490.349 531.907 486.277 530.018 483.703 525.371C474.642 509.009 477.914 500.001 487.598 497.04C492.923 495.411 497.931 496.523 503.926 497.853C508.832 498.942 514.398 500.177 521.339 500.178C521.342 500.178 521.344 500.178 521.346 500.178C522.019 500.178 522.631 500.223 523.187 500.309L531.413 500.779C531.413 500.779 564.814 614.058 549.837 651.934H481.902Z" fill="#FF9B21"/>
<path fill-rule="evenodd" clip-rule="evenodd" d="M481.902 651.934C486.971 639.754 492.168 625.536 497.169 610.853C499.031 627.023 502.131 643.263 507.293 651.934H481.902Z" fill="black" fill-opacity="0.1"/>
<path fill-rule="evenodd" clip-rule="evenodd" d="M850.823 421.65C843.538 426.041 836.38 428.162 833.02 427.296C824.594 425.125 823.82 394.302 830.339 382.151C836.858 369.999 870.372 364.703 872.061 388.779C872.647 397.134 869.139 404.592 863.955 410.676L873.25 454H846.25L850.823 421.65Z" fill="#B28B67"/>
<path fill-rule="evenodd" clip-rule="evenodd" d="M836.423 374.138C837.042 373.769 838.335 372.99 838.991 372.708C839.146 372.64 840.232 371.865 840.261 371.875C841.084 372.153 843.465 373.177 843.669 374.062C843.701 374.129 843.732 374.192 843.762 374.247C844.1 374.86 844.409 375.489 844.705 376.125C845.353 377.522 845.912 378.982 846.447 380.43C847.487 383.25 848.391 386.137 849.223 389.03C850.069 391.975 850.787 394.954 851.591 397.911C852.748 402.166 854.229 406.317 855.378 410.57C856.112 413.286 856.52 416.034 856.327 418.829C856.326 418.863 856.324 418.896 856.321 418.93C856.32 418.944 856.319 418.958 856.317 418.972C856.285 419.401 856.238 419.832 856.176 420.264C856.121 420.634 856.066 421.004 856.008 421.375C854.959 419.282 854.157 416.976 853.307 414.787C853.224 414.573 853.144 414.357 853.067 414.14C852.793 413.696 852.513 413.256 852.23 412.817C850.447 410.048 848.658 407.29 846.948 404.471C843.873 399.401 840.827 394.224 837.181 389.569C836.105 388.194 835.003 386.841 833.94 385.455C833.335 384.666 832.746 383.864 832.176 383.048C831.769 382.464 829.997 380.43 830.639 379.208C830.967 378.582 834.819 375.096 836.423 374.138Z" fill="#2C2C2C"/>
<path fill-rule="evenodd" clip-rule="evenodd" d="M838.796 372.81C838.194 373.012 838.487 371.761 839.069 371.32C841.768 369.28 852.086 368.54 861.064 370.403C867.079 371.652 874.075 374.76 878.879 378.755C883.21 382.357 886.188 388.13 887.722 393.709C889.332 399.566 889.575 405.673 888.678 411.679C888.481 412.998 888.058 414.256 887.822 415.547C887.556 417.001 887.42 418.401 886.946 419.816C886.656 420.683 886.163 421.532 885.916 422.403C885.633 423.397 885.806 424.316 886.012 425.328C886.347 426.975 886.764 428.62 887.355 430.194C888.244 432.557 889.322 434.771 889.998 437.223C890.897 440.486 894.659 451.105 891.91 454H839.576C840.894 450.405 844.85 446.175 845.65 442.327C846.122 440.06 846.346 435.11 846.396 434.93C847.575 426.8 849.878 422.918 851.32 421.509C852.762 420.1 854.683 419.667 854.782 418.445C855.191 413.39 853.181 408.547 851.707 403.83C849.951 398.207 848.664 392.446 846.853 386.842C846.051 384.361 841.919 371.761 838.796 372.81Z" fill="#8991DC"/>
<path fill-rule="evenodd" clip-rule="evenodd" d="M859.118 396.785C859.542 388.229 859.118 384.887 857.144 378.625H858.361C860.285 381.11 861.894 388.711 860.086 396.785H859.118ZM882.966 396.382L882.966 396.382C883.178 395.862 883.395 395.33 883.62 394.785L884.394 395.157C881.953 404.084 878.984 410.976 868.789 416.754L867.996 416.199C877.638 409.419 879.705 404.36 882.966 396.382ZM868.51 385.704C868.408 386.478 868.31 387.232 868.215 387.969C866.749 399.279 865.82 406.452 857.65 419.46L858.576 419.743C867.531 407.679 868.951 397.833 869.374 385.773L868.51 385.704ZM877.33 422.365L878.122 423.328C874.154 424.159 871.457 427.077 868.364 430.422C865.092 433.961 861.378 437.979 855.25 440.508L854.112 439.818C860.801 436.341 863.913 432.884 866.63 429.866C869.442 426.742 871.832 424.088 877.33 422.365Z" fill="black" fill-opacity="0.2"/>
<path fill-rule="evenodd" clip-rule="evenodd" d="M891.213 549L848.941 687.467L828.464 805.223H812.408L834.046 549H891.213Z" fill="#997659"/>
<path fill-rule="evenodd" clip-rule="evenodd" d="M906.336 549C903.465 625.026 906.844 664.241 907.486 671.148C908.129 678.055 916.928 722.842 937.76 807.542L920.651 801.655C887.729 723.973 876.51 683.6 872.734 673.399C868.958 663.199 858.929 621.732 842.648 549H906.336Z" fill="#B28B67"/>
<path fill-rule="evenodd" clip-rule="evenodd" d="M934.761 800.204C935.831 799.725 937.106 800.203 937.509 801.303C938.334 803.556 939.517 807.132 939.517 809.115C939.517 812.159 938.504 818 938.504 818C934.979 818 875.146 818 875.146 818C875.146 818 872.677 809.819 877.998 809.167C883.319 808.515 886.838 807.989 886.838 807.989L916.401 794.784C916.916 794.554 917.519 794.795 917.734 795.317L919.675 800.035C919.675 800.035 924.601 802.338 927.681 802.338C929.632 802.338 932.744 801.106 934.761 800.204Z" fill="#E4E4E4"/>
<path fill-rule="evenodd" clip-rule="evenodd" d="M829.168 800.204C830.238 799.725 831.513 800.203 831.916 801.303C832.74 803.556 833.923 807.132 833.923 809.115C833.923 812.159 832.911 818 832.911 818C829.386 818 769.553 818 769.553 818C769.553 818 767.083 809.819 772.404 809.167C777.725 808.515 781.245 807.989 781.245 807.989L810.808 794.784C811.323 794.554 811.926 794.795 812.14 795.317L814.082 800.035C814.082 800.035 819.007 802.338 822.087 802.338C824.039 802.338 827.15 801.106 829.168 800.204Z" fill="#E4E4E4"/>
<path fill-rule="evenodd" clip-rule="evenodd" d="M896.83 549L878.857 619.547H823.959L832.144 549H896.83Z" fill="#69A1AC"/>
<path fill-rule="evenodd" clip-rule="evenodd" d="M906.94 549C915.811 575.642 910.31 619.547 910.31 619.547H854.289L838.884 549H906.94Z" fill="#89C5CC"/>
<path fill-rule="evenodd" clip-rule="evenodd" d="M968.067 584.484C963.873 578.331 935.604 495.535 935.604 495.535L911.222 499.055C911.222 499.055 951.759 585.272 954.075 589.282C957.084 594.491 954.419 603.048 952.612 608.851C952.333 609.748 952.074 610.58 951.86 611.323C955.652 612.415 957.095 610.248 958.616 607.963C960.335 605.383 962.153 602.652 967.569 604.299C969.661 604.935 971.671 605.752 973.635 606.55C980.418 609.308 986.65 611.841 993.81 605.912C994.945 604.972 995.902 601.899 992.295 600.109C983.31 595.651 970.117 587.491 968.067 584.484ZM757.951 580.205L785.19 545.038L798.217 561.669L768.114 585.594C761.704 599.69 757.657 605.96 755.973 604.404C754.553 603.092 754.88 601.39 755.181 599.822C755.416 598.601 755.635 597.46 755 596.65C753.551 594.8 747.124 596.879 741.11 599.113C735.096 601.347 736.104 598.102 737.2 596.329C742.401 590.78 749.318 585.405 757.951 580.205Z" fill="#B28B67"/>
<path fill-rule="evenodd" clip-rule="evenodd" d="M851.56 436.904L841.695 436.608C834.045 492.289 761.204 539.748 759.231 560.438C758.507 568.026 764.321 570.993 761.902 573.613L775.709 581.003C777.482 578.235 782.642 582.117 791.647 577.629C800.653 573.141 860.471 500.309 851.56 436.904Z" fill="#DB2721"/>
<path fill-rule="evenodd" clip-rule="evenodd" d="M867.611 423.212C869.772 422.753 871.896 424.133 872.356 426.294L873.83 433.225C893.917 444.604 944.7 479.904 967.296 555.729C969.67 563.694 968.058 568.366 966.771 572.098C965.89 574.652 965.16 576.766 965.962 579.194L950.209 586.012C949.951 584.172 947.689 583.063 944.77 581.632C940.527 579.551 934.896 576.79 932.019 570.112C929.292 563.782 925.497 555.931 921.06 547.227C922.464 559.383 921.729 570.847 918.012 580.779C908.74 605.557 832.91 590.469 822.058 568.046C816.267 556.08 820.506 544.755 826.113 529.778C833.23 510.765 842.55 485.867 836.356 446.3L833.841 434.475C833.381 432.315 834.76 430.191 836.921 429.732L867.611 423.212Z" fill="#FF4133"/>
</svg>
