<svg width="351" height="356" viewBox="0 0 351 356" fill="none" xmlns="http://www.w3.org/2000/svg">
<path fill-rule="evenodd" clip-rule="evenodd" d="M156.854 95.3376C163.542 97.8931 169.794 98.5952 172.458 97.3888C179.138 94.3638 175.298 68.8253 168.117 59.7564C160.937 50.6875 132.339 51.2255 134.438 71.3322C135.166 78.3107 139.164 83.9482 144.354 88.2085L142.937 125.306L165.356 121.353L156.854 95.3376Z" fill="#B28B67"/>
<path fill-rule="evenodd" clip-rule="evenodd" d="M153.302 50.4573C150.262 50.4969 142.248 51.5688 140.781 51.8277C139.844 51.993 138.865 52.385 138.159 51.6276C137.581 51.0075 137.538 49.7936 137.259 49.0048C136.935 48.0884 136.547 47.1959 136.157 46.3062C135.046 43.7745 133.628 41.4297 131.848 39.3072C128.509 35.3253 124.149 32.5137 119.062 31.3273C113.445 30.0175 107.443 30.5489 101.904 31.9923C95.9761 33.5367 90.8804 36.4686 85.5302 39.3255C80.4316 42.0479 74.8876 43.7432 69.0767 43.8774C63.222 44.0127 58.3729 41.7024 53.0502 39.6368C47.6012 37.522 41.6312 36.5631 35.8904 38.0378C30.5316 39.4144 25.9175 42.5258 21.9502 46.2947C18.2382 49.8211 15.3611 53.7835 14.2347 58.845C13.0229 64.2897 14.0068 69.8581 18.2611 73.7309C24.4276 79.3446 34.0444 79.3818 41.7692 77.8474C46.2374 76.9602 50.4989 75.3701 54.4726 73.1439C59.7719 70.1748 64.0623 65.9697 68.867 62.3245C71.1219 60.6139 73.5003 59.1162 76.0537 57.8892C78.5315 56.6982 81.0399 55.91 83.6759 57.0582C86.4645 58.273 88.9885 59.5042 92.0275 60.0366C94.9429 60.5473 97.9433 60.5915 100.859 60.0543C106.531 59.0092 111.82 56.2637 117.129 54.1133C121.459 52.3599 126.103 50.5542 130.853 50.6684C132.834 50.7162 135.77 51.0185 136.81 52.8725C125.545 57.0186 123.496 72.1179 128.626 82.0324C131.395 87.3837 143.203 92.1279 146.815 88.421C149.103 86.0727 147.076 83.877 145.758 82.4239C143.233 79.6411 141.85 75.7389 145.115 72.9159C147.931 70.4812 152.028 74.3615 152.089 74.3455C152.942 74.1253 159.677 68.6071 163.747 61.5701C168.881 60.9734 169.065 57.5092 167.372 55.0012C165.679 52.4933 157.502 50.403 153.302 50.4573Z" fill="#191847"/>
<path fill-rule="evenodd" clip-rule="evenodd" d="M139.287 201.945C145.009 224.566 265.199 272.943 266.165 274.724C266.809 275.912 246.526 360.458 246.526 360.458L256.641 362.464C256.641 362.464 294.324 270.066 290.073 261.678C283.986 249.67 191.33 193.019 191.33 193.019L139.287 201.945Z" fill="#B28B67"/>
<path fill-rule="evenodd" clip-rule="evenodd" d="M246.933 348.196L263.379 351.09C289.493 308.614 296.924 276.055 291.872 261.024C286.82 245.994 193.444 192.453 193.444 192.453L138.188 202.196C149.432 254.937 256.746 276.594 258.487 278.618C260.229 280.643 250.922 305.124 246.933 348.196Z" fill="#2F3676"/>
<path fill-rule="evenodd" clip-rule="evenodd" d="M245.59 358.745C244.615 358.098 243.277 358.346 242.695 359.361C241.69 361.111 240.332 363.685 240.058 365.235C239.612 367.754 239.599 372.735 239.599 372.735C242.524 373.25 292.178 381.987 292.178 381.987C292.178 381.987 295.423 375.578 291.103 374.262C286.783 372.945 283.939 371.996 283.939 371.996L261.469 356.843C261.002 356.528 260.367 356.66 260.065 357.136L257.851 360.62C257.851 360.62 253.427 361.806 250.871 361.356C249.347 361.088 247.131 359.768 245.59 358.745Z" fill="#E4E4E4"/>
<path fill-rule="evenodd" clip-rule="evenodd" d="M151.738 199.749L123.895 323.941L93.7253 430.103L104.912 428.131L189.658 193.063L151.738 199.749Z" fill="#997659"/>
<path fill-rule="evenodd" clip-rule="evenodd" d="M94.4246 409.031L120.102 409.304C134.345 377.691 194.372 247.781 193.691 192.352L138.354 202.109C115.771 246.247 107.685 377.11 94.4246 409.031Z" fill="#5C63AB"/>
<path fill-rule="evenodd" clip-rule="evenodd" d="M260.679 141.168L229.562 161.949L242.769 173.866L264.613 150.017C276.823 145.471 282.324 142.445 281.115 140.94C280.096 139.671 278.648 139.844 277.314 140.004C276.274 140.129 275.304 140.245 274.661 139.665C273.191 138.339 275.312 133.068 277.538 128.152C279.764 123.237 276.98 123.891 275.427 124.706C270.465 128.743 265.549 134.23 260.679 141.168ZM113.651 190.508L93.9058 190.081C86.9885 226.507 82.5745 246.577 80.6637 250.293C79.2626 253.018 69.0994 261.193 62.0645 265.842C59.2408 267.708 60.3535 270.18 61.3963 270.849C67.9737 275.073 72.9099 272.316 78.2832 269.314C79.8388 268.445 81.431 267.556 83.1103 266.81C87.4568 264.878 89.2528 266.974 90.9502 268.956C92.453 270.71 93.8784 272.374 96.9281 271.072C96.6733 270.473 96.3721 269.804 96.047 269.082C93.9459 264.416 90.8473 257.535 92.8219 252.871C93.8353 250.477 100.778 229.69 113.651 190.508Z" fill="#B28B67"/>
<path fill-rule="evenodd" clip-rule="evenodd" d="M152.231 106.11L160.037 103.308C180.574 117.246 194.943 156.9 207.583 160.255C219.534 163.427 234.321 155.711 251.757 145.738L259.706 157.487C246.023 178.791 212.719 200.624 196.555 194.363C170.713 184.352 156.424 134.84 152.231 106.11Z" fill="#DB2721"/>
<path fill-rule="evenodd" clip-rule="evenodd" d="M134.999 213.591C134.999 213.591 183.416 205.054 206.228 201.032C209.483 200.458 208.04 195.86 207.15 193.569C196.888 167.121 170.482 141.317 163.603 102.306L142.489 102.703C130.32 133.065 130.384 167.795 134.999 213.591Z" fill="#DDE3E9"/>
<path fill-rule="evenodd" clip-rule="evenodd" d="M141.398 102.895L141.163 102.936C100.093 139.496 80.0152 188.485 80.9283 249.901L96.3747 250.197C104.23 236.916 113.106 215.883 123.002 187.097C121.333 203.681 120.938 220.457 122.625 235.957L186.741 224.652C193.616 191.055 149.298 101.502 149.298 101.502L144.871 102.282L141.398 102.895Z" fill="#FF4133"/>
</svg>
